<?xml version="1.0" encoding="UTF-8" standalone="no"?><!DOCTYPE svg PUBLIC "-//W3C//DTD SVG 1.1//EN" "http://www.w3.org/Graphics/SVG/1.1/DTD/svg11.dtd"><svg width="100%" height="100%" viewBox="0 0 2455 2083" version="1.1" xmlns="http://www.w3.org/2000/svg" xmlns:xlink="http://www.w3.org/1999/xlink" xml:space="preserve" xmlns:serif="http://www.serif.com/" style="fill-rule:evenodd;clip-rule:evenodd;stroke-linejoin:round;stroke-miterlimit:2;"><g id="Fondo"><path d="M1103.328,21.651c13.333,-0.713 12.595,3.668 13.187,16.662c0.341,112.226 -0.142,111.982 -0.032,121.719c-0.366,57.926 -0.223,57.398 -0.039,115.658c0.855,6.534 1.711,13.068 2.566,19.601c1.315,0.794 0.322,3.513 1.637,4.308c1.881,1.136 1.699,0.413 12.592,-3.385c12.229,-4.264 12.136,-2.637 24.153,-6.187c2.483,-0.697 2.331,-0.606 30.284,-6.884l36.496,-4.584c36.865,-2.755 36.289,-2.712 72.785,-4.166c12.16,0.772 24.32,1.544 36.48,2.315c64.885,2.4 64.537,4.02 127.383,19.616c24.644,18.04 14.007,-8.705 16.734,-38.924c-0.028,-49.858 0.038,-49.257 0.113,-91.27c-0.051,-16.242 -0.102,-32.485 -0.153,-48.727c-0.006,-18.244 -0.011,-36.489 -0.017,-54.733c-3.023,-40.937 -1.674,-42.227 1.683,-42.984c13.111,-2.955 12.734,0.116 23.963,7.623c11.669,6.66 45.211,30.106 60.564,36.975c2.337,1.6 4.673,3.201 7.01,4.801c12.326,9.215 21.159,12.905 23.145,13.735c3.023,1.836 29.493,17.914 36.897,24.37c1.509,0.863 11.528,6.589 18.443,11.495c72.138,46.466 73.045,44.802 79.202,48.997c8.649,6.975 8.991,5.845 18.338,11.597c9.73,4.028 26.886,21.077 47.691,26.223c1.298,2.807 5.472,11.829 31.013,23.083c9.299,5.81 104.605,65.359 115.925,73.118c8.871,6.678 9.14,5.502 18.474,11.399c1.481,0.952 11.538,7.418 18.181,12.414c4.983,2.737 41.799,22.956 60.49,37.298c4.652,3.05 9.304,6.1 13.955,9.151c3.872,2.353 7.745,4.707 11.617,7.06c7.625,5.419 7.149,4.986 16.323,8.478c9.203,7.262 9.069,6.743 18.876,12.669c20.832,17.574 61.937,37.943 73.563,47.015c3.802,2.375 7.604,4.75 11.406,7.125c34.806,22.671 35.921,20.428 55.807,35.218l11.397,7.094c4,2.31 8.001,4.619 12.001,6.929c8.497,7.181 7.979,7.108 17.539,12.518c35.06,21.053 36.124,19.556 37.697,22.706c0,0 10.407,7.07 11.312,7.685c12.203,9.129 12.331,7.95 25.096,16.436c13.044,16.069 4.758,80.326 4.349,82.757c-5.462,4.92 -15.191,11.159 -16.57,12.044c-2.136,1.898 -4.273,3.797 -6.409,5.695c-9.533,5.97 -9.289,5.153 -17.817,12.182c-3.763,2.664 -39.902,28.243 -48.396,31.291c-4.472,3.233 -33.571,22.145 -36.503,24.051c-27.472,18.4 -27.838,16.925 -55.339,35.906c-15.48,9.158 -14.968,8.746 -30.331,18.263c-5.938,4.47 -52.674,39.651 -78.516,49.668c-31.304,12.134 8.398,29.393 12.124,32.139c5.756,4.241 5.659,3.779 11.391,7.608c11.598,6.857 27.494,17.136 29.859,18.666c1.991,1.411 14.378,10.185 25.368,16.944c1.47,0.965 11.247,7.379 18.151,12.393c11.879,6.647 17.103,10.634 18.494,11.696c33.722,22.38 33.539,22.547 36.504,24.432c1.5,0.914 11.682,7.117 18.471,11.863c11.638,7.669 11.168,7.368 22.64,14.307c2.1,1.508 11.881,10.347 73.683,48.113c3.617,6.302 4.995,5.592 4.741,13.178c-24.136,15.297 -23.579,14.886 -47.186,30.952c-18.969,11.925 -65.743,43.438 -66.199,43.733c-20.457,15.938 -44.064,26.338 -123.109,83.436c-9.866,5.099 -9.222,5.07 -18.101,11.977c-3.885,2.356 -7.771,4.712 -11.656,7.068c-11.85,9.505 -135.132,88.486 -171.117,114.873c-5.242,3.18 -10.484,6.36 -15.726,9.54c-16.326,11.584 -16.354,10.395 -32.405,21.563c-2.372,1.548 -22.539,14.706 -29.286,19.889c-5.598,4.268 -142.922,94.729 -153.009,102.305c-43.328,26.78 -42.245,27.236 -84.777,55.292l-7.046,4.932l-18.207,11.744c-3.826,2.498 -7.653,4.995 -11.479,7.493c-7.316,5.362 -7.272,4.795 -15.919,9.785c0,0 -13.119,8.149 -14.259,8.858c-13.74,13.321 0.016,14.662 24.578,20.671l17.935,6.477c6.223,3.671 12.445,7.342 18.668,11.013c14.709,12.556 14.997,11.621 28.23,26.03c27.159,37.048 34.205,27.383 69.549,27.325l30.513,-0.167c36.544,0.464 36.059,0.397 72.972,0.179l6.097,-0.009c111.435,0.401 128.366,1.966 131.964,-6.125c9.158,-20.595 0.74,-23.925 14.788,-41.008c8.517,-4.35 8.071,-4.839 17.618,-6.553c10.121,-0.394 20.243,-0.787 30.364,-1.181c20.185,0.63 40.37,1.261 60.554,1.891c15.109,7.463 14.918,7.008 16.168,7.708c9.645,15.47 9.875,15.372 10.635,33.766c0.702,16.988 43.143,11.329 101.384,11.495c24.357,0.021 48.714,0.042 73.071,0.063l12.141,-0.082c51.8,0.043 51.284,0.005 103.526,0.609c24.906,4.43 24.693,3.055 48.572,12.626c3.762,2.363 7.525,4.727 11.287,7.09c41.107,42.649 31.446,49.47 31.428,205.723c-0.005,46.374 9.472,55.622 -31.398,77.302c-2.814,1.661 -18.744,11.065 -36.058,19.202c-18.159,9.703 -17.467,9.749 -19.014,10.546c-73.033,37.306 -70.93,41.686 -108.056,52.386l-18.801,3.029c-42.767,2.771 -42.383,4.371 -231.068,4.099c-16.213,0.009 -32.425,0.018 -48.638,0.028c-94.587,0.328 -94.129,0.323 -188.779,-0.1c-18.237,-0.005 -36.475,-0.011 -54.712,-0.016c-52.342,0.034 -51.666,-0.237 -103.509,-0.007c-45.986,-0.239 -45.355,-0.257 -91.283,-0.049c-176.974,-0.647 -176.482,-2.046 -353.095,-3.274c-6.069,-0.113 -12.137,-0.225 -18.206,-0.338l-12.284,0.015l-24.277,0.152c-14.214,-0.037 -28.428,-0.075 -42.641,-0.112l-30.407,-0.384c-10.136,0.109 -20.272,0.218 -30.409,0.327c-10.156,-0.092 -20.312,-0.183 -30.468,-0.275c-151.5,-1.703 -201.589,-1.093 -219.117,-0.88c-8.122,-0.185 -16.244,-0.37 -24.367,-0.556c-56.812,-0.045 -113.625,-0.09 -170.437,-0.136c-145.818,-0.302 -145.61,0.183 -158.27,0.012c-12.882,0.278 -12.418,0.133 -30.41,0.071c-50.796,-0.593 -50.445,0.11 -54.829,-0.046c-90.195,0.021 -93.663,5.616 -146.254,-20.67c-21.048,-10.413 -20.477,-10.263 -41.476,-20.336c-3.969,-2.19 -7.939,-4.38 -11.908,-6.57c-3.989,-2.207 -7.978,-4.414 -11.968,-6.621c-4.112,-1.989 -8.225,-3.979 -12.337,-5.968c-3.994,-1.977 -7.988,-3.955 -11.982,-5.932c-1.568,-0.791 -12.355,-6.232 -19.111,-10.8c-22.051,-11.079 -21.634,-10.688 -43.382,-23.075c-3.385,-8.88 -4.45,-8.65 -4.5,-73.134c-0.03,-38.315 72.298,-38.103 52.658,-54.108c-31.388,-25.579 -36.128,-22.091 -53.743,-61.748c-2.349,-8.033 -4.698,-16.066 -7.047,-24.099c-1.294,-24.723 -0.735,-24.275 0.211,-48.886c1.287,-6.759 9.63,-50.568 38.934,-76.695c17.268,-13.64 17.03,-13.123 35.196,-25.427l17.693,-7.048l12.601,-4.736l5.579,-1.509c6.311,-0.551 21.744,-1.899 79.112,-3.561c48.721,0.395 48.206,0.937 97.368,0.088c12.318,0.713 11.734,0.625 24.274,0.159l6.054,-0.053c29.665,4.233 40.428,11.595 41.227,11.983c2.373,1.406 4.747,2.813 7.12,4.219c12.552,8.525 12.257,8.116 24.212,17.933c7.266,16.952 4.777,16.951 3.734,35.714c-4.545,29.984 13.071,22.012 94.261,22.43c73.502,-0.08 73.056,-0.08 146.118,0.052c18.265,-0.01 36.531,-0.02 54.796,-0.03c58.185,-0.122 57.862,-0.263 103.461,-0.033c33.77,-0.067 33.323,-0.248 66.87,-1.171l6.04,0.096c21.932,5.101 21.641,5.159 23.538,5.539c11.12,5.572 11.058,5.518 12.009,6.018c37.437,19.659 18.346,-15.794 19.918,-81.233c0.334,-13.889 31.815,-11.685 90.781,-11.208c79.759,0.644 79.021,13.201 85.203,10.217c16.851,-8.135 -16.427,-21.377 -53.56,-43.822c-11.281,-6.817 -27.275,-17.376 -29.622,-18.925c-2.224,-1.794 -4.448,-3.588 -6.672,-5.383c-5.88,-4.16 -5.568,-3.9 -11.771,-6.892c-1.11,-0.764 -6.799,-4.681 -13.555,-9.993c-2.4,-1.505 -22.96,-14.397 -29.948,-18.893c-10.218,-6.26 -27.239,-17.963 -29.577,-19.57c-21.019,-15.89 -25.099,-16.692 -36.51,-23.997c-2.333,-1.763 -4.666,-3.526 -6.999,-5.289c-23.272,-15.546 -23.051,-15.727 -25.084,-17.052c-18.85,-11.553 -18.359,-11.252 -36.627,-24.184c-23.358,-15.102 -23.376,-14.795 -29.619,-19.551c-3.815,-2.307 -7.629,-4.614 -11.444,-6.922c-41.011,-26.32 -40.749,-25.853 -44.193,-28.251c-7.804,-5.5 -7.271,-5.862 -16.581,-8.988c-11.289,-10.322 -11.358,-9.523 -24.624,-17.335c-2.27,-1.708 -4.54,-3.415 -6.811,-5.123c-14.843,-9.897 -14.203,-10.017 -29.808,-19.279c-2.211,-1.703 -4.423,-3.405 -6.634,-5.108c-1.494,-0.928 -0.746,-0.962 -18.444,-11.966c-2.352,-1.42 -68.656,-44.74 -73.492,-48.098c-20.978,-13.5 -21.245,-12.932 -23.038,-14.141c-9.269,-6.247 -8.828,-5.84 -18.356,-12.144c-15.998,-12.2 -18.344,-7.905 -30.376,-18.039c-2.231,-1.845 -4.462,-3.69 -6.693,-5.536c-79.666,-51.354 -79.13,-52.169 -89.715,-56.34c-1.132,-0.805 -7.24,-5.148 -13.762,-10.581c-3.774,-2.363 -7.549,-4.725 -11.323,-7.088c-7.157,-4.944 -6.728,-4.652 -13.995,-9.584c-9.217,-5.091 -18.434,-10.182 -27.651,-15.273c-1.106,-0.864 -7.277,-5.686 -13.726,-10.92c-15.815,-11.422 -15.986,-10.377 -23.217,-13.43c-2.366,-1.708 -4.731,-3.416 -7.097,-5.124c-8.395,-6.934 -8.242,-6.491 -17.601,-12.465c-9.699,-7.963 -9.131,-10.779 -0.505,-19.408c5.428,-3.349 26.734,-16.495 67.128,-43.001c22.294,-10.203 20.751,-12.188 41.844,-25.179c27.376,-19.003 27.871,-17.049 55.296,-36.009c16.233,-7.202 14.795,-8.767 30.397,-18.127c2.397,-1.526 18.938,-12.059 30.122,-18.83c7.708,-4.694 15.415,-9.388 23.123,-14.082c27.099,-18.046 27.855,-16.701 30.043,-18.483c12.204,-9.937 -27.884,-23.854 -53.08,-43.471c-11.36,-7.133 -27.194,-17.967 -29.533,-19.568c-2.26,-1.707 -4.52,-3.414 -6.779,-5.122c-6.151,-4.029 -12.301,-8.058 -18.452,-12.087c-3.927,-2.339 -7.854,-4.678 -11.782,-7.017c-9.247,-6.176 -9.027,-5.862 -18.49,-11.458c-1.562,-0.967 -12.747,-8.869 -13.85,-9.648c0,0 -20.725,-13.823 -22.528,-15.025c-7.355,-4.799 -88.072,-57.459 -91.831,-60.149c-1.443,-0.965 -10.884,-7.273 -17.816,-12.39l-2.631,-2.559c-29.314,-20.493 -20.335,-38.545 -19.021,-68.955c1.296,-29.998 9.393,-26.84 52.025,-58.789c10.226,-4.391 9.74,-4.226 18.985,-11.005c24.431,-15.665 24.971,-14.156 48.48,-30.874c12.336,-5.825 11.536,-6.305 23.131,-13.854c4.323,-3.358 23.673,-15.223 25.759,-16.503c21.046,-12.786 20.697,-12.622 41.222,-26.145c14.276,-10.973 31.221,-16.937 55.154,-35.476c34.55,-19.975 32.891,-21.981 67.746,-41.614l16.049,-9.821c147.007,-93.332 146.541,-93.911 159.661,-101.452c6.564,-5.055 6.011,-4.689 6.564,-5.055c2.413,-1.599 2.643,-0.234 5.004,-1.798c6.767,-5.528 6.403,-5.228 12.917,-10.668c12.851,-4.808 11.73,-6.064 24.047,-13.104c6.068,-3.988 12.136,-7.977 18.205,-11.965c6.692,-4.899 17.503,-10.384 19.081,-11.185c40.022,-26.051 41.97,-26.954 45.902,-28.778c7.417,-4.432 6.573,-5.02 13.854,-9.449c7.073,-4.666 17.125,-10.72 18.63,-11.627c9.478,-8.231 33.791,-22.017 36.841,-23.747c7.16,-4.965 16.87,-10.955 18.359,-11.873c6.649,-5.039 103.738,-64.972 125.403,-77.284c6.772,-4.851 6.294,-4.388 6.772,-4.851c1.576,-1.527 0.279,-2.047 1.719,-3.442Z" style="fill:#091258;fill-opacity:0.99;"/><path d="M1194.696,495.173c24.351,-107.798 71.07,-145.121 35.076,-122.717c-14.022,8.728 -103.756,84.658 -137.203,154.076c-37.528,77.889 -31.651,84.291 -26.584,89.812c2.92,3.182 32.893,18.368 27.743,60.719c-4.834,39.744 -52.834,43.546 -53.686,54.883c-4.904,65.262 5.076,147.076 -15.057,131.345c-24.395,-19.061 0.782,-133.772 -8.963,-142.319c-27.002,-23.682 -36.484,-19.692 -38.705,-55.747c-3.03,-49.194 59.963,-50.602 65.069,-66.564c11.881,-37.144 10.79,-36.899 26.002,-72.245c73.219,-131.194 91.791,-116.032 112.489,-141.526c30.023,-36.98 -90.819,34.742 -119.895,57.109c-40.113,30.857 -70.98,63.079 -76.69,69.04c-156.273,181.88 -20.17,273.364 -58.585,269.593c-10.589,-1.04 -98.881,-101.095 20.694,-265.643c62.7,-86.282 312.635,-304.173 592.151,-102.616c68.59,49.46 247.237,182.132 200.386,520.423c-34.252,247.319 -259.232,370.573 -387.099,390.347c-22.17,3.428 -32.763,-4.941 -33.018,17.691c-2.791,248.546 4.722,255.896 -10.163,260.018c-35.996,9.967 -30.468,-9.903 -30.688,-46.832c-1.139,-191.093 5.779,-224.894 -10.935,-227.479c-33.776,-5.224 -33.401,-4.396 -66.547,-12.564c-172.731,-53.69 -243.786,-158.043 -303.948,-235.589c-31.32,-40.371 36.15,5.743 52.126,26.214c64.584,82.758 84.97,91.814 153.167,145.978c59.206,47.023 -17.948,-19.059 -37.496,-91.973c-4.363,-16.275 -2.788,-23.072 13.68,-19.26c31.008,7.177 -18.792,76.567 121.574,146.853c48.403,24.237 -18.945,-23.18 -25.699,-85.238c-10.748,-98.762 7.12,-320.202 -10.96,-328.452c-8.015,-3.657 -86.313,-39.385 -40.454,-102.42c22.938,-31.53 48.971,-19.72 49.838,-43.906c3.289,-91.807 -2.328,-91.797 12.183,-182.985c4.434,-24.183 3.779,-23.63 10.199,-48.023Z" style="fill:#cdf5fd;fill-opacity:1;"/><path d="M998.149,1092.2c-7.954,-4.687 -701.765,-458.269 -706.846,-468.7c-19.275,-39.571 35.693,-57.049 169.939,-143.737c47.634,-30.759 541.804,-349.867 598.602,-379.53c12.887,-6.73 8.747,7.063 7.696,181.576c-0.128,21.243 -10.848,19.241 -30.961,32.422c-104.913,68.754 -102.967,70.587 -173.612,116.883c-55.19,36.169 -54.479,36.283 -109.49,73.175c-185.785,124.593 -189.425,124.195 -188.237,131.115c1.073,6.251 334.186,214.167 447.333,289.17c44.327,29.384 61.833,22.275 61.115,75.544c-1.389,103.058 -0.109,104.071 -4.332,107.024c-33.833,23.657 -36.744,7.425 -71.205,-14.942Z" style="fill:#a2c2fd;fill-opacity:0.99;"/><path d="M2210.734,1023.443c9.229,7.3 20.045,12.428 29.274,19.729c6.763,5.35 3.241,10.917 -84.114,67.408c-309.81,200.348 -304.248,207.535 -614.628,408.048c-11.443,-6.439 -14.055,-6.514 -11.94,-19.4c6.966,-42.439 5.629,-42.088 3.732,-85.092c-0.787,-33.107 -10.216,-36.05 9.701,-62.774c5.244,92.022 2.133,92.077 3,100.037c0.891,8.177 5.028,3.739 7.464,5.551c0.874,1.655 -2.862,3.596 -1.988,5.252c3.171,6.007 6.513,4.758 7.147,4.521c8.072,-3.015 3.323,-8.433 11.708,-11.565c54.171,-40.179 599.737,-394.211 600.845,-400.723c0.467,-2.745 -2.209,-16.763 -34.413,5.251c-1.907,-0.409 -3.114,3.413 -5.022,3.004c-9.198,-1.971 -70.377,-59.547 -95.784,-36.119c-34.316,31.644 -53.214,40.484 -268.422,176.788c1.942,-8.161 -11.348,-2.079 -9.392,-10.301c0.32,-1.346 0.321,-1.351 14.195,-9.886c59.214,-36.429 59.386,-35.992 64.437,-39.3c4.09,-2.679 3.66,-2.532 7.559,-4.884c149.984,-90.488 152.655,-99.639 157.01,-114.566l-2.501,-6.087l-10.317,-5.01c-47.473,-35.722 -166.529,-107.501 -185.226,-123.874c-7.669,-6.716 -12.581,-11.017 -8.496,-127.14c0.488,-13.874 12.502,-5.877 13.464,-5.237c327.743,218.169 326.628,218.998 402.707,266.368Z" style="fill:#fd89f8;fill-opacity:0.99;"/><path d="M1534.232,160.019c134.957,87.598 133.066,89.423 267.643,177.06c100.712,65.583 119.636,80.946 129.385,88.86c4.711,3.824 6.125,-1.411 10.995,1.913c1.51,1.031 -0.552,3.939 0.452,5.467c1.555,2.369 2.287,1.203 29.727,19.27c115.726,76.193 115.702,75.537 229.636,153.735c27.79,19.074 30.016,14.624 32.392,16.287c1.535,1.074 -0.598,4.468 0.937,5.542c-2.397,2.512 -4.793,5.024 -7.19,7.535c-36.922,-5.286 -52.255,-2.004 -139.913,-5.379c-4.327,-0.167 -6.782,-0.261 -45.944,-28.624c-53.743,-38.923 -303.303,-206.593 -329.791,-224.389c-113.476,-76.24 -169.422,-120.514 -158.737,-96.211c5.823,13.245 468.273,318.611 501.038,343.54c8.291,6.308 -2.278,10.141 -21.038,22.571c-14.818,-17.778 -17.738,-13.848 -53.882,-38.477c-400.648,-272.997 -402.989,-268.981 -437.625,-292.968c-13.665,-9.463 -9.815,-14.055 -8.084,-155.732Z" style="fill:#0cbefe;fill-opacity:1;"/><path d="M1463.16,507.602c-17.392,58.447 27.034,56.937 36.911,70.95c8.019,11.378 2.313,500.261 1.418,512.543c-5.695,78.156 -98.167,166.994 -101.155,165.416c-10.39,-5.487 -3.157,-8.255 0.34,-25.074c4.509,-21.682 7.401,-151.262 7.695,-164.428c0.473,-21.184 22.903,-14.031 34.922,-36.37c26.38,-49.032 -31.545,-71.519 -34.261,-79.812c-6.505,-19.868 -1.432,-212.233 -0.946,-230.681c0.418,-15.832 6.874,-12.012 20.73,-21.006c21.186,-13.752 26.368,-61.843 2.365,-76.831c-38.137,-23.814 -23.027,-33.559 -26.406,-78.62c-6.176,-44.847 -6.565,-89.326 -38.283,-159.267c-25.001,-55.13 97.716,62.151 110.651,81.785c13.787,20.927 -0.921,20.484 -13.982,41.394Z" style="fill:#291681;fill-opacity:1;"/><path d="M1203.352,548.933l7.57,6.772c1.341,2.455 -0.493,5.894 0.848,8.349c0.263,0.482 47.256,-0.161 56.676,-1.346c-9.229,35.573 14.43,29.417 18.312,47.355c0.614,2.838 6.879,611.61 5.363,645.777c-1.627,36.662 -4.85,51.882 -38.436,38.001c-58.729,-24.273 -63.14,-129.338 -63.661,-141.759c-0.526,-12.534 -3.027,-270.668 4.697,-278.68c2.598,-2.695 41.504,-11.921 49.193,-55.564c10.762,-61.087 -50.663,-68.352 -51.102,-91.69c-1.623,-86.158 8.66,-163.138 10.54,-177.215Z" style="fill:#092577;fill-opacity:1;"/><path d="M71.556,1780.593c-32.575,-58.238 -11.176,-140.378 56.368,-154.927c40.904,-8.811 217.066,-2.57 218.426,-1.863c8.209,4.264 2.279,36.809 1.706,39.957c-3.926,21.546 -33.808,13.088 -165.02,13.928c-5.479,0.035 -67.49,0.432 -49.667,47.167c23.619,61.933 278.299,-48.357 241.048,158.535c-9.949,28.378 -25.354,62.907 -94.014,63.489c-201.476,1.708 -209.498,7.346 -213.467,-9.28c-13.425,-56.247 7.884,-56.521 12.519,-56.58c165.256,-2.124 212.924,10.067 221.342,-22.165c23.207,-88.864 -163.331,4.489 -229.242,-78.261Z" style="fill:#84fafe;fill-opacity:0.99;"/><path d="M1325.767,525.475c-7.441,-50.823 -29.357,-189.803 5.94,-156.472c35.424,33.451 70.555,229.794 48.978,245.09c-26.937,19.095 -33.338,18.579 -31.289,51.351c2.338,37.405 36.062,34.998 36.92,54.763c0.377,8.668 0.079,226.673 -0.289,230.981c-0.816,9.543 -56.529,35.902 -25.779,83.705c6.703,10.42 26.191,16.7 26.741,26.212c0.953,16.463 8.634,149.125 -13.473,205.686c-11.504,29.432 -59.038,46.329 -60.596,1.378c-0.978,-28.212 -4.873,-562.94 -6.426,-651.616c-0.448,-25.574 2.405,-25.204 18.192,-45.076c10.256,-12.91 1.309,-44.621 1.082,-46.002Z" style="fill:#252388;fill-opacity:1;"/><path d="M1610.034,805.292c-1.849,32.046 6.214,37.532 -20.211,55.692c-27.84,19.132 -20.069,58.227 -4.432,69.386c37.621,26.846 22.748,35.551 21.065,81.851c-0.613,16.853 11.326,104.13 -115.606,218.059c-48.344,43.392 -94.544,62.276 -83.176,44.163c4.906,-7.817 13.99,0.011 74.996,-87.661c45.94,-66.021 37.076,-89.208 41.143,-411.877c2.158,-171.22 -8.301,-197.765 0.314,-204.851c43.398,-35.697 38.88,-54.252 -40.167,-134.458c-8.702,-8.829 -85.803,-67.86 -34.981,-43.135c29.774,14.485 105,79.326 131.544,134.078c32.75,67.553 30.902,111.367 29.512,278.753Z" style="fill:#230e7e;fill-opacity:1;"/><path d="M389.793,610.163c19.471,-15.125 14.817,-18.957 16.547,-20.119c0.986,-0.662 2.155,4.155 14.453,-3.411c25.54,-15.713 65.041,-46.915 84.175,-56.229c8.324,-4.052 3.456,-8.738 11.526,-13.276c2.027,-1.14 4.641,1.93 6.864,1.247c5.037,-1.545 1.284,-6.994 54.757,-36.602c18.43,-10.205 15.438,-14.18 219.182,-145.964c20.155,-13.036 18.094,-15.164 37.948,-28.134c6.228,-4.068 74.127,-48.425 78.297,-50.152c3.855,-1.597 2.432,-3.774 43.49,-28.791c37.754,-23.004 57.288,-41.72 59.558,-31.588c1.066,4.759 -0.469,66.467 -0.612,72.245c-0.499,20.065 -237.744,164.968 -284.429,202.069c-35.041,27.847 -141.77,91.402 -209.82,148.56c-6.146,5.163 -30.393,3.089 -64.778,2.903c-2.789,-2.194 -3.298,-6.539 -6.087,-8.733c-1.227,-0.966 -45.149,-2.752 -48.769,-2.379c-2.699,0.278 -3.402,5.76 -6.091,5.4c-3.103,-0.415 -3.108,-6.63 -6.211,-7.045Z" style="fill:#59e9fe;fill-opacity:1;"/><path d="M2136.521,1059.686c-34.351,22.756 -361.696,239.61 -430.369,282.954c-13.358,-5.165 -14.305,-4.31 -25.077,5.598c-16.454,15.136 -22.594,6.729 -36.595,24.233c-7.203,9.005 -8.701,5.993 -18.505,11.663c-31.572,18.258 -30.505,19.146 -60.982,38.525c-16.109,10.243 -6.238,-8.01 -7.092,-75.665c-0.225,-17.781 20.931,-25.526 74.703,-59.463c6.33,-3.91 6.164,-3.932 78.88,-49.253c34.823,-21.078 51.412,-32.019 55.808,-34.918c215.208,-136.304 234.106,-145.144 268.422,-176.788c25.407,-23.428 86.587,34.148 95.784,36.119c1.907,0.409 3.114,-3.413 5.022,-3.004Z" style="fill:#fe26f3;fill-opacity:0.99;"/><path d="M1358.809,1834.032c0.684,31.166 -13.781,47.123 17.308,47.087c77.564,-0.09 156.398,16.407 161.456,-77.671c7.643,-142.153 -53.515,-121.735 -228.402,-122.185c-10.556,-0.027 -17.75,-0.917 -14.967,-42.488c1.204,-17.98 9.114,-11.206 27.139,-11.36c159.611,-1.364 272.504,-10.592 286.127,121.387c20.11,194.818 -109.023,196.84 -127.816,197.134c-14.654,0.229 -143.311,2.244 -183.198,0.157c-13.126,-0.687 -8.979,-55.139 -9.055,-81.608l6.146,-6.112l0.572,-6.087l0.526,-6.087l0.326,-6.087c0.286,-0.34 -0.902,-19.414 56.805,-7.039l7.032,0.959Z" style="fill:#fd84fa;fill-opacity:0.99;"/><path d="M2414.417,1767.25c0.137,13.682 1.493,149.067 -0.919,171.03c-0.869,7.916 -41.499,7.812 -45.166,7.803c-152.308,-0.39 -206.727,12.519 -216.284,-57.631c-21.064,-154.619 193.921,-62.821 196.553,-103.189c2.152,-33 -30.689,-24.686 -150.694,-25.046c-27.866,-0.084 -15.789,-41.113 -12.796,-42.705c8.348,-4.441 179.758,-1.574 183.573,-1.022c43.67,6.319 43.936,43.635 45.732,50.761Z" style="fill:#fc71f8;fill-opacity:0.99;"/><path d="M396.019,635.24c6.779,-0.815 18.646,-2.241 85.33,-1.474c6.029,0.581 12.059,1.162 18.088,1.744c25.748,8.995 24.64,11.413 245.281,148.716c15.609,9.713 111.751,69.541 193.161,124.492l22.532,14.333c24.433,15.87 24.106,15.678 48.31,31.308c19.737,15.308 24.737,14.324 24.136,39.377c-0.243,10.13 0.104,20.266 0.012,30.399c-0.014,1.584 -0.174,19.203 -1.94,19.702c-3.051,0.863 -4.765,-4.494 -7.783,-5.467c-2.249,-0.725 -4.871,1.586 -7.055,0.685c-2.601,-1.072 -3.348,-4.856 -5.906,-6.029c-0.935,-0.429 -0.875,0.319 -12.083,4.41c-144.99,-94.377 -274.917,-184.003 -298.596,-200.337c-182.726,-126.048 -276.003,-176.35 -303.488,-201.86Z" style="fill:#fe31f9;fill-opacity:0.99;"/><path d="M1516.771,1231.459c138.163,-144.442 95.927,-166.815 108.477,-280.114c1.374,-12.408 60.968,-44.447 24.645,-85.049c-5.9,-6.595 -20.271,-13.356 -20.644,-24.273c-2.847,-83.173 12.463,-257.992 -30.528,-327.882c-14.87,-24.173 -19.681,-25.274 -14.425,-29.329c6.196,-4.78 82.052,72.45 113.977,162.354c38.382,108.088 53.415,331.877 -62.754,478.943c-7.872,9.965 -95.406,120.781 -118.747,105.35Z" style="fill:#2a0882;fill-opacity:0.99;"/><path d="M572.199,976.307c5.902,5.178 24.143,13.59 26.33,14.599c-45.04,29.694 -56.723,36.723 -40.582,48.197c2.341,1.779 2.628,4.593 31.378,18.672c8.021,4.061 433.246,264.225 453.173,282.167l-2.663,7.795c-2.908,33.201 0.898,33.043 -4.531,66.332c-5.667,-0.466 -12.775,-1.051 -60.845,-36.733c-20.881,-15.5 -23.516,-9.551 -25.235,-10.924c-3.399,-2.715 -3.674,-8.001 -6.471,-11.332c-4.506,-5.367 -6.673,3.857 -12.486,-0.039c-3.565,-2.389 -3.467,-7.958 -6.137,-11.318c-1.107,-1.393 -2.994,-2.252 -4.767,-2.403c-9.235,-0.788 -7.754,-2.968 -13.54,-10.007c-4.091,-4.977 -6.376,1.996 -11.428,-1.686c-4.016,-2.927 -0.636,-5.093 -4.841,-7.546c-15.115,-8.821 -14.291,-9.639 -18.286,-12.246c-33.94,-22.149 -33.543,-22.633 -36.887,-23.691c-10.038,-3.178 -101.397,-66.893 -103.288,-67.276c-13.848,-2.811 -63.894,-41.332 -69.136,-45.367c-13.03,-10.03 -17.488,-2.689 -28.121,-15.749c-4.208,-5.168 -45.018,-27.648 -49.042,-29.864c-23.261,-12.813 -21.192,-15.15 -44.287,-27.966c-32.623,-18.103 -33.125,-16.989 -35.938,-18.59c-18.182,-10.349 -15.693,-13.299 -17.319,-14.031c0,0 -11.803,6.758 -12.83,7.346c-8.844,-6.922 -8.751,-6.194 -17.556,-13.223c1.865,-0.951 4.322,2.027 6.186,1.076c8.491,-4.33 5.5,-8.802 98.705,-66.715c10.567,-6.566 10.807,-7.396 10.443,-19.477Z" style="fill:#7061fb;fill-opacity:1;"/><path d="M1052.227,1785.307c-0.183,1.776 -3.181,30.944 8.027,20.821c102.042,-92.16 103.191,-92.166 114.983,-92.228c47.872,-0.255 91.086,-5.753 69.507,12.387c-5.306,4.46 -4.903,4.821 -63.157,59.32l-5.523,-6.366c-30.45,-42.282 -49.101,2.375 -104.496,35.56c-5.98,3.583 -2.973,5.011 0.196,7.724c10.318,8.836 10.876,9.585 26.621,5.414c1.695,0.006 2.12,3.356 3.815,3.363c6.363,0.024 5.683,-2.91 12.088,-1.678c1.924,0.37 14.703,2.826 24.48,-0.813c15.256,-5.679 17.446,7.58 24.305,7.424c3.134,-0.071 5.402,-3.874 8.536,-3.945c2.668,3.591 18.081,24.333 34.111,44.319c-5.178,5.05 -15.098,7.849 1.592,22.729c10.647,9.492 11.599,3.563 17.515,0.955c22.552,29.544 54.359,47.553 17.379,47.101c-33.021,-0.404 -71.257,5.862 -83.676,-10.933c-31.358,-42.408 -42.868,-58.918 -46.491,-64.115c-19.344,-27.748 -27.143,-12.321 -50.743,12.196c-14.609,15.177 -2.028,61.155 -20.137,62.475c-61.862,4.511 -63.301,-4.695 -64.102,-9.821c-3.38,-21.626 -0.068,-21.694 0.235,-273.602c0.004,-2.943 0.042,-35.166 9.395,-35.562c57.202,-2.426 63.451,2.572 64.843,5.943c1.108,2.684 1.476,2.562 0.697,151.335Z" style="fill:#a1fafe;fill-opacity:1;"/><path d="M2093.647,483.79c109.123,69.572 148.486,96.934 161.147,105.735c47.404,32.952 12.807,42.309 9.616,41.185c-14.003,-4.933 -445.968,-295.508 -484.568,-321.473c-214.692,-144.419 -211.845,-151.952 -245.335,-155.267c1.613,-24.372 0.459,-23.8 0.061,-48.709c-0.162,-10.12 4.77,-9.01 13.238,-2.852c62.297,45.303 480.697,304.742 522.758,330.823c-4.289,9.396 -8.347,11.664 0.549,17.227c2.662,1.664 25.437,4.052 29.382,20.036c0.287,1.162 -0.498,0.966 -6.849,13.296Z" style="fill:#109cd5;fill-opacity:1;"/><path d="M1895.428,1760.635c1.058,12.503 1.64,11.928 2.091,24.712c5.408,153.271 3.161,159.646 -9.674,160.472c-0.933,0.06 -170.076,0.073 -170.863,0.068c-8.168,-0.05 -77.878,-0.478 -80.315,-63.05c-4.011,-103.001 55.799,-86.669 147.299,-87.012c29.137,-0.109 40.361,12.067 46.191,-16.421c1.686,-4.112 3.372,-8.225 5.058,-12.337c5.21,-1.989 4.284,-3.678 9.641,-3.68c30.997,-0.012 30.949,-1.28 37.626,1.445c7.361,3.004 7.781,7.242 13.746,1.954c1.547,-1.371 -2.347,-4.778 -0.8,-6.149Z" style="fill:#fc4ff8;fill-opacity:0.99;"/><path d="M2235.399,628.152c1.393,1.201 4.125,-1.17 5.518,0.032c0.849,0.732 -2.72,1.896 6.139,12.604c14.949,18.071 -10.63,11.34 -13.174,18.348c-0.438,1.207 0.561,1.013 7.774,14.04c-176.821,111.741 -189.951,136.438 -218.409,117.349c-7.813,-5.241 -97.165,-65.174 -97.542,-65.688c-6.298,-8.587 1.377,-9.657 108.12,-77.642c18.761,-12.43 29.329,-16.263 21.038,-22.571c-32.765,-24.929 -495.215,-330.294 -501.038,-343.54c-10.685,-24.303 45.261,19.971 158.737,96.211c26.488,17.796 276.048,185.466 329.791,224.389c39.162,28.363 41.617,28.457 45.944,28.624c87.657,3.375 102.99,0.093 139.913,5.379c2.397,-2.512 4.793,-5.024 7.19,-7.535Z" style="fill:#43f3fe;fill-opacity:0.99;"/><path d="M407.919,1037.775c-10.273,4.867 -13.234,9.015 -3.537,15.518c41.899,28.101 49.156,16.298 533.941,335.544c87.646,57.718 106.869,71.729 100.149,50.837c-0.395,-1.229 -0.82,-0.87 -11.072,-11.744c2.635,-4.62 5.27,-9.24 7.905,-13.86c5.429,-33.29 1.624,-33.131 4.531,-66.332c17.316,22.268 8.832,24.981 9.179,53.232c0.716,-0.391 9.886,1.608 11.097,-11.149c0.978,-10.3 0.309,-20.822 2.462,-30.942c0.686,-3.224 5.027,-4.795 5.821,-7.995c0.362,-1.458 -3.367,-1.901 -3.005,-3.359c1.159,1.452 4.127,0.318 5.286,1.77c7.36,9.218 5.842,10.417 15.761,16.015c0.417,151.208 3.783,161.061 -8.526,158.079c-0.493,-0.119 -216.66,-147.394 -534.496,-348.688c-15.751,-9.975 -188.061,-119.104 -196.929,-124.628l6.983,-5.881c21.038,-6.775 19.915,-7.89 39.288,-17.99c10.939,-5.703 7.77,3.932 8.525,5.258c0,0 6.106,5.808 6.637,6.313Z" style="fill:#c4d1fd;fill-opacity:0.99;"/><path d="M1242.206,2016.583c-53.491,0.049 -661.504,0.612 -668.631,-2.744c-42.818,-20.156 27.058,-12.418 1386.932,-13.68c237.648,-0.22 237.504,1.94 304.404,-2.137c55.047,-3.355 -4.332,13.776 -5.51,14.041c-33.839,7.599 -34.319,3.802 -749.353,4.977c-112.053,0.184 -246.415,-0.369 -267.842,-0.457Z" style="fill:#cac8fb;fill-opacity:0.99;"/><path d="M1135.029,1596.675c0.012,-52.081 0.111,-51.617 -0.841,-103.383c-0.163,-8.847 6.018,-9.191 33.062,8.614c83.132,54.732 98.865,62.852 86.595,100.618c-8.875,27.319 -1.779,63.122 -5.635,73.193c-3.227,8.427 -138.168,10.676 -143.971,-0.66c-0.38,-0.741 -2.788,-52.434 -1.754,-53.978c10.855,-16.209 27.729,0.206 32.543,-24.404Z" style="fill:#fef9fe;fill-opacity:1;"/><path d="M1988.284,1013.325l10.317,5.01l2.501,6.087c-4.355,14.927 -7.025,24.078 -157.01,114.566c-3.899,2.352 -3.468,2.205 -7.559,4.884c-5.051,3.308 -5.223,2.871 -64.437,39.3c-13.873,8.535 -13.874,8.54 -14.195,9.886c-1.956,8.222 11.333,2.139 9.392,10.301c-4.397,2.9 -20.985,13.84 -55.808,34.918c-4.549,-2.575 -5.063,-12.975 -24.616,-0.153c-21.722,14.244 -22.334,12.187 -43.137,27.283c-10.245,7.435 -19.483,-0.569 -18.029,11.924c0.474,4.077 6.428,6.121 6.902,10.198c-53.772,33.937 -74.927,41.682 -74.703,59.463c0.854,67.655 -9.017,85.908 7.092,75.665c30.476,-19.379 29.409,-20.267 60.982,-38.525c9.805,-5.67 11.302,-2.658 18.505,-11.663c14.001,-17.503 20.141,-9.096 36.595,-24.233c10.771,-9.909 11.719,-10.763 25.077,-5.598c-120.638,84.757 -139.285,86.294 -150.829,109.386l-2.1,4.924c-2.436,-1.812 -6.574,2.625 -7.464,-5.551c-0.867,-7.959 2.245,-8.015 -3,-100.037c-2.113,-0.304 0.076,-5.768 -2.037,-6.071c-15.136,-2.175 -21.333,12.011 -22.172,13.93l1.173,6.087l1.469,6.087l-0.454,6.087l0.18,6.087l-0.28,6.087l-0.166,6.087l0.541,6.087l1.164,6.087l6.129,1.747l4.751,4.47c1.897,43.004 3.234,42.653 -3.732,85.092c-2.115,12.886 0.496,12.96 11.94,19.4c-9.074,6.069 -30.711,24.871 -36.823,16.857c-3.005,-3.94 -1.028,-167.771 -0.852,-182.359c0.259,-21.451 14.158,-23.889 196.87,-143.577c271.39,-177.78 276.481,-173.058 287.824,-196.222Z" style="fill:#fba5fa;fill-opacity:0.99;"/><path d="M1534.507,153.97c33.49,3.316 30.643,10.848 245.335,155.267c38.6,25.966 470.564,316.541 484.568,321.473c3.191,1.124 37.788,-8.234 -9.616,-41.185c-12.661,-8.801 -52.023,-36.163 -161.147,-105.735c6.351,-12.33 7.135,-12.134 6.849,-13.296c-3.945,-15.984 -26.721,-18.372 -29.382,-20.036c-8.896,-5.563 -4.838,-7.83 -0.549,-17.227c0.067,0.041 23.409,15.356 25.445,16.692c1.461,0.959 14.604,9.582 18.296,11.935c187.722,119.654 194.368,115.244 196.547,130.672c5.903,41.805 -11.074,43.527 -69.196,80.645c-7.213,-13.027 -8.212,-12.834 -7.774,-14.04c2.545,-7.008 28.123,-0.277 13.174,-18.348c-8.858,-10.709 -5.289,-11.872 -6.139,-12.604c-1.393,-1.201 -4.125,1.17 -5.518,-0.032c-1.535,-1.074 0.598,-4.468 -0.937,-5.542c-2.376,-1.663 -4.602,2.787 -32.392,-16.287c-113.934,-78.197 -113.91,-77.541 -229.636,-153.735c-27.44,-18.066 -28.172,-16.9 -29.727,-19.27c-1.003,-1.529 1.059,-4.436 -0.452,-5.467c-4.87,-3.325 -6.284,1.911 -10.995,-1.913c-9.749,-7.914 -28.673,-23.276 -129.385,-88.86c-134.577,-87.636 -132.686,-89.462 -267.643,-177.06l0.275,-6.049Z" style="fill:#6af2fd;fill-opacity:0.99;"/><path d="M1054.848,151.239c-14.965,4.608 -14.368,5.148 -25.644,15.545l-6.198,4.091c-134.882,82.427 -180.215,125.268 -649.441,430.36c-2.248,1.462 -2.032,1.427 -27.435,19.263c-36.597,6.765 -30.001,-18.152 -23.206,-22.327c208.596,-128.139 649.382,-423.358 688.167,-437.066c27.342,-9.663 35.713,-37.475 43.756,-9.865Z" style="fill:#1431a1;fill-opacity:1;"/><path d="M598.529,990.906c7.772,-6.418 33.65,-14.272 -3.15,-37.11c-21.958,-13.627 -74.373,-40.311 -34.632,-49.409c4.452,-1.019 113.135,61.467 107.416,70.436c-5.599,8.782 -92.332,44.653 -69.756,59.542c48.593,32.049 369.513,229.516 401.728,249.338c85.38,52.536 85.523,54.635 86.1,63.158c0.416,6.136 -0.216,12.313 0.2,18.449c-9.919,-5.598 -8.401,-6.798 -15.761,-16.015c-1.159,-1.452 -4.127,-0.318 -5.286,-1.77c-17.058,-10.144 -22.605,-7.541 -22.89,-7.583c-19.927,-17.942 -445.152,-278.106 -453.173,-282.167c-0.906,-3.641 3.3,-7.357 2.394,-10.999c-0.42,-1.689 -0.341,-1.371 -18.559,-11.359c-14.22,-7.796 -12.104,2.932 -15.213,3.685c-16.141,-11.475 -4.458,-18.503 40.582,-48.197Z" style="fill:#9bf0fd;fill-opacity:0.99;"/><path d="M495.083,1833.346c8.509,23.935 11.022,22.354 11.372,23.008c-0.268,4.866 -0.536,9.731 -0.804,14.597l6.628,-0.402l5.546,-3.109c2.63,-0.388 3.457,-4.765 6.087,-5.153c18.252,-2.692 17.92,3.285 36.368,0.456c10.367,-1.589 9.55,0.885 17.451,7.334c-5.39,11.16 -61.942,128.256 -68.662,138.867c-4.582,7.235 -6.024,9.511 -106.828,6.83c-14.014,-0.373 -11.167,-28.088 -10.719,-41.67c0.739,-22.406 66.446,-11.841 83.248,-13.851c13.477,-1.612 2.528,-8.804 -32.401,-82.308c-1.544,-2.878 -7.721,-14.397 -18.282,-36.508l8.517,-9.561c15.326,-1.768 15.165,2.462 30.538,-0.069c11.487,-1.891 12.065,-5.098 18.16,0.703c2.154,2.05 3.934,4.469 6.087,6.519l7.694,-5.683Z" style="fill:#13f1fe;fill-opacity:1;"/><path d="M670.286,1791.411c0.141,-41.525 -7.332,-76.309 17.966,-76.507c183.243,-1.435 191.775,2.866 206.548,10.313c45.85,23.112 37.337,91.955 37.078,157.506l-8.906,-6.088l-1.559,-6.087c-13.31,-13.847 -43.065,-7.244 -54.258,0l-5.884,6.058l-0.229,-24.35c1.304,-1.974 8.024,-12.144 15.418,-25.237c-1.468,-25.552 5.926,-24.341 31.175,-30.122c17.043,-3.902 1.214,-29.147 -6.167,-30.595c-32.866,-6.446 -29.585,5.87 -34.254,19.024l-6.692,5.802c-8.456,-26.563 -15.789,-24.419 -105.311,-24.688c-20.154,-0.06 -14.308,39.791 -14.578,85.78l-6.694,-6.022l-0.804,-6.087c-2.857,-3.922 -5.713,-7.844 -8.57,-11.767c6.375,-32.093 -3.685,-32.499 1.427,-50.448c0.744,-2.611 5.877,-2.134 6.621,-4.745c-2.409,-1.114 0.672,-6.656 -1.736,-7.77c-6.008,-2.778 -33.936,-1.182 -36.883,-1.013c-16.254,0.929 -12.139,7.2 -13.597,8.783l-1.191,6.087l-0.195,6.087l-8.726,6.084Z" style="fill:#d9fefe;fill-opacity:1;"/><path d="M396.019,635.24c27.485,25.509 120.762,75.812 303.488,201.86c23.679,16.334 153.605,105.96 298.596,200.337c33.103,22.421 30.632,26.022 38.857,28.084c6.148,1.541 4.564,-2.732 9.388,-78.669c2.881,2.301 5.762,4.602 8.643,6.903c-0.683,40.727 2.535,94.811 -13.484,90.742c-22.498,-5.715 -20.19,-10.577 -242.531,-159.275c-279.085,-186.647 -279.811,-184.89 -303.627,-201.72c-92.024,-65.035 -167.076,-98.049 -99.329,-88.263Z" style="fill:#950dbe;fill-opacity:0.99;"/><path d="M572.199,976.307c0.364,12.081 0.124,12.912 -10.443,19.477c-93.205,57.913 -90.214,62.385 -98.705,66.715c-1.865,0.951 -4.322,-2.027 -6.186,-1.076c-24.593,-12.276 -23.154,-14.447 -48.946,-23.649c-0.531,-0.505 -6.637,-6.313 -6.637,-6.313c-0.755,-1.326 2.414,-10.961 -8.525,-5.258c-19.373,10.099 -18.25,11.214 -39.288,17.99l-6.983,5.881c-26.263,-18.465 1.542,-20.598 36.657,-45.084c8.116,-5.659 102.195,-62.384 110.481,-65.405c6.519,-2.377 14.645,-5.339 78.575,36.721Z" style="fill:#67f8fe;fill-opacity:0.99;"/><path d="M2029.698,1767.8c-35.533,-11.003 -45.296,-27.473 -61.968,5.353l-8.529,6.07c-0.067,-2.91 3.182,-17.688 -10.826,-18.759c-16.867,-1.289 -24.735,5.223 -24.98,-11.606c-0.33,-22.66 -4.122,-31.885 25.208,-33.774c21.825,-1.406 10.624,-43.06 14.09,-50.879c3.647,-8.227 48.368,-7.931 52.625,-7.903c24.186,0.16 13.205,36.573 15.56,50.505c2.198,13.003 50.03,8.12 69.638,8.339c25.084,0.281 23.402,8.425 22.631,33.516c-0.763,24.831 -79.36,0.777 -93.449,19.137Z" style="fill:#fcdffc;fill-opacity:0.99;"/><path d="M407.919,1037.775c25.792,9.201 24.353,11.373 48.946,23.649c8.805,7.029 8.712,6.301 17.556,13.223c2.55,1.701 20.142,13.43 32.523,20.26c101.592,56.035 498.395,316.78 520.455,333.024c10.252,10.874 10.677,10.515 11.072,11.744c6.72,20.893 -12.502,6.881 -100.149,-50.837c-484.784,-319.247 -492.042,-307.443 -533.941,-335.544c-9.697,-6.503 -6.736,-10.651 3.537,-15.518Z" style="fill:#38259f;fill-opacity:1;"/><path d="M1203.352,548.933c3.261,-15.243 39.697,-185.526 82.035,-176.737c7.759,1.611 -0.352,5.77 10.148,98.538c3.85,34.015 13.302,67.324 -5.508,76.915c-11.909,6.072 -11.476,6.096 -21.581,15.059c-9.42,1.185 -56.413,1.828 -56.676,1.346c-1.341,-2.455 0.493,-5.894 -0.848,-8.349l-7.57,-6.772Z" style="fill:#bc35f6;fill-opacity:1;"/><path d="M2136.521,1059.686c32.205,-22.014 34.88,-7.996 34.413,-5.251c-1.108,6.512 -546.674,360.544 -600.845,400.723c-3.275,0.403 -2.151,2.522 -5.164,2.893c-10.689,1.315 -7.879,-4.944 -9.602,-6.026c11.544,-23.092 30.191,-24.628 150.829,-109.386c68.673,-43.344 396.019,-260.198 430.369,-282.954Z" style="fill:#a105ad;fill-opacity:0.99;"/><path d="M2029.073,1834.001c0.269,13.976 -8.741,55.15 28.733,56.731c50.45,2.129 50.248,-0.108 54.602,0.248c11.052,0.904 8.582,43.243 8.359,47.06c-0.452,7.74 -12.811,7.869 -14.103,7.882c-108.951,1.137 -145.343,9.065 -147.569,-99.721l8.766,-6.088c2.522,-2.237 2.292,-6.656 4.814,-8.893c7.276,-6.453 44.86,0.14 48.698,0.813l7.7,1.967Z" style="fill:#fc2ff6;fill-opacity:0.99;"/><path d="M1895.428,1760.635c-1.547,1.371 2.347,4.778 0.8,6.149c-5.965,5.288 -6.386,1.05 -13.746,-1.954c-6.677,-2.725 -6.629,-1.457 -37.626,-1.445c-5.357,0.002 -4.431,1.692 -9.641,3.68c-1.686,4.112 -3.372,8.225 -5.058,12.337c-3.67,-13.079 -2.57,-18.566 -27.917,-19.343c-2.084,-0.064 -125.026,0.309 -127.593,-0.193c-13.041,-2.55 -6.995,-37.286 -4.76,-40.293c3.437,-4.621 43.338,-4.422 47.124,-4.403c143.579,0.717 162.478,-7.375 178.417,45.464Z" style="fill:#fcddfc;fill-opacity:0.99;"/><path d="M984.291,511.038c5.711,-5.961 36.578,-38.183 76.69,-69.04c29.076,-22.367 149.918,-94.09 119.895,-57.109c-20.698,25.494 -39.27,10.333 -112.489,141.526c-26.085,5.911 -27.768,1.901 -39.234,13.513l-6.087,-2.868l-6.087,1.091l-6.087,-2.057c-8.36,-0.83 -11.535,2.29 -11.848,-5.194c-0.566,-13.561 -3.408,-12.415 -14.753,-19.863Z" style="fill:#912cea;fill-opacity:1;"/><path d="M1349.075,1572.235c1.124,-10.589 -1.344,-11.438 4.014,-17.066c0.108,-0.114 102.005,-69.838 102.246,-69.844c8.419,-0.181 7.879,4.837 5.227,105.138c-0.218,8.241 -2.207,17.896 -102.488,10.71c-14.492,-1.038 -7.541,-8.027 -8.999,-28.939Z" style="fill:#fde8fd;fill-opacity:1;"/><path d="M622.199,1779.71c-24.94,51.541 -24.673,51.388 -29.944,61.06c-2.178,-1.684 -4.058,-13.467 -25.913,-10.386c-18.06,2.546 -17.887,2.553 -18.081,2.501c-3.568,-0.966 -3.62,-6.865 -18.262,0.94l-8.04,-0.649c16.163,-33.87 15.819,-33.908 17.235,-36.837c32.543,-65.246 31.393,-65.73 34.352,-71.331c6.403,-12.12 18.987,-10.483 73.578,-9.434c5.504,0.106 5.51,4.871 -24.925,64.136Z" style="fill:#ccfefe;fill-opacity:1;"/><path d="M474.42,1074.647c1.026,-0.588 12.83,-7.346 12.83,-7.346c1.626,0.732 -0.863,3.683 17.319,14.031c2.813,1.601 3.315,0.487 35.938,18.59c23.095,12.816 21.027,15.153 44.287,27.966c4.023,2.216 44.834,24.696 49.042,29.864c10.633,13.06 15.091,5.719 28.121,15.749c5.242,4.035 55.287,42.557 69.136,45.367c1.891,0.384 93.25,64.099 103.288,67.276c3.344,1.058 2.946,1.543 36.887,23.691c3.995,2.607 3.171,3.425 18.286,12.246c4.205,2.454 0.825,4.619 4.841,7.546c5.052,3.682 7.337,-3.292 11.428,1.686c5.785,7.038 4.305,9.219 13.54,10.007c1.773,0.151 3.66,1.01 4.767,2.403c2.67,3.36 2.572,8.929 6.137,11.318c5.813,3.896 7.98,-5.328 12.486,0.039c2.797,3.331 3.072,8.618 6.471,11.332c1.719,1.373 4.354,-4.576 25.235,10.924c48.07,35.682 55.178,36.267 60.845,36.733c-2.635,4.62 -5.27,9.24 -7.905,13.86c-22.06,-16.244 -418.863,-276.988 -520.455,-333.024c-12.382,-6.829 -29.973,-18.559 -32.523,-20.26Z" style="fill:#9abafc;fill-opacity:0.99;"/><path d="M2218.485,1864.411c2.514,-16.643 -0.488,-20.768 15.667,-25.411c8.605,-2.473 103.073,-1.127 104.068,-1.009c12.467,1.48 23.953,53.666 -6.397,53.849c-75.091,0.451 -105.204,10.331 -113.337,-27.429Z" style="fill:#1c034a;fill-opacity:0.99;"/><path d="M1705.911,1852.686c5.238,-8.535 3.01,-14.621 29.295,-15.059c6.85,-0.114 61.264,-1.02 85.634,0.305c13.059,0.71 21.787,54.738 -6.446,54.797c-71.952,0.151 -118.053,9.806 -108.483,-40.044Z" style="fill:#1e024b;fill-opacity:0.99;"/><path d="M2210.171,645.92c-2.081,3.829 -4.162,7.658 -6.244,11.487c-22.309,10.036 -21.755,10.865 -107.46,59.504c-10.848,-17.288 -21.791,-32.923 -23.76,-35.736c-7.849,-11.214 -7.313,-11.91 -20.898,-15.823c-4.072,-2.211 -8.144,-4.422 -12.216,-6.634c38.732,-17.446 40.125,-14.365 170.578,-12.799Z" style="fill:#30f3fe;fill-opacity:0.99;"/><path d="M670.171,1882.724l7.276,-6.088l1.758,-6.087c6.453,-6.068 6.167,-7.117 15.153,-5.988c18.607,2.336 22.166,-11.246 40.559,5.988c1.803,4.039 3.606,8.078 5.409,12.117c-0.066,58.057 -0.369,64.152 -15.55,64.439c-3.968,0.075 -43.376,0.82 -49.574,-1.958c-7.673,-3.439 -5.017,-51.981 -5.031,-62.423Z" style="fill:#0df8fe;fill-opacity:1;"/><path d="M1358.913,1767.07c-0.035,22.321 -0.069,44.641 -0.104,66.962l-7.032,-0.959c-57.708,-12.374 -56.519,6.7 -56.805,7.039l-0.326,6.087l-0.526,6.087l-0.572,6.087l-6.146,6.112c-0.016,-24.36 -0.032,-48.721 -0.047,-73.081l6.154,-6.077l1.112,-6.087l0.841,-6.087c2.658,-1.372 -1.127,-7.471 1.531,-8.842c3.592,-1.853 7.94,1.733 11.979,1.872c21.612,0.744 21.372,-2.976 42.806,0.25l7.137,0.637Z" style="fill:#fd97fc;fill-opacity:1;"/><path d="M394.119,1780.186c-25.355,-51.732 -26.277,-51.186 -28.208,-55.8c-6.06,-14.484 49.966,-9.973 60.556,-9.729c19.773,0.456 25.728,29.205 50.544,81.925c-6.237,2.674 -11.983,10.242 -18.635,-1.844c-7.553,-13.723 -7.14,-13.761 -7.955,-14.833c-16.384,-21.543 -21.505,-9.995 -48.253,-10.997l-0.751,4.245l-7.298,7.033Z" style="fill:#e0fdfe;fill-opacity:0.99;"/><path d="M2029.698,1767.8c-1.375,23.149 -0.669,22.77 -0.625,66.201l-7.7,-1.967c-3.838,-0.673 -41.422,-7.267 -48.698,-0.813c-2.522,2.237 -2.292,6.656 -4.814,8.893l-8.766,6.088c0.035,-22.326 0.07,-44.652 0.105,-66.978l8.529,-6.07c16.673,-32.827 26.436,-16.357 61.968,-5.353Z" style="fill:#fe8bfb;fill-opacity:1;"/><path d="M1181.587,1785.606c-21.493,19.081 -27.55,23.434 -9.979,46.681c-3.134,0.071 -5.402,3.874 -8.536,3.945c-6.859,0.156 -9.049,-13.103 -24.305,-7.424c-9.777,3.64 -22.556,1.183 -24.48,0.813c-6.404,-1.231 -5.725,1.702 -12.088,1.678c-1.695,-0.006 -2.12,-3.356 -3.815,-3.363c-15.745,4.171 -16.304,3.422 -26.621,-5.414c-3.169,-2.714 -6.176,-4.142 -0.196,-7.724c55.395,-33.184 74.046,-77.842 104.496,-35.56l5.523,6.366Z" style="fill:#b9fdfe;fill-opacity:1;"/><path d="M394.119,1780.186l7.298,-7.033l0.751,-4.245c26.748,1.002 31.869,-10.546 48.253,10.997c0.815,1.072 0.402,1.11 7.955,14.833c6.652,12.086 12.398,4.518 18.635,1.844c6.024,12.255 12.048,24.51 18.072,36.764l-7.694,5.683c-2.154,-2.05 -3.934,-4.469 -6.087,-6.519c-6.095,-5.801 -6.673,-2.594 -18.16,-0.703c-15.372,2.531 -15.212,-1.699 -30.538,0.069l-8.517,9.561c-15.025,-31.073 -15.277,-30.327 -29.968,-61.252Z" style="fill:#9bfefe;fill-opacity:0.99;"/><path d="M1833.175,597.533c-112.769,-79.504 -122.222,-80.578 -114.42,-89.169c7.222,-7.954 180.637,120.003 180.917,120.344c16.773,20.447 -84.267,71.487 -84.655,71.302c-18.429,-8.766 66.402,-52.936 69.487,-59.633c2.238,-4.858 2.939,-8.721 -51.329,-42.844Z" style="fill:#c0dae8;fill-opacity:0.99;"/><path d="M768.021,574.831c11.911,-7.541 95.748,-67.304 102.735,-67.213c17.827,0.233 -8.769,18.65 -10.226,19.659c-138.872,96.159 -140.154,94.184 -151.3,103.731c-14.987,12.837 86.105,54.19 64.178,64.451c-6.79,3.178 -80.973,-52.37 -83.973,-55.632c-5.524,-6.004 -2.657,-10.403 78.586,-64.996Z" style="fill:#bfe3ee;fill-opacity:1;"/><path d="M1153.082,832.877c-45.227,-64.278 61.48,-90.13 59.875,-27.592c-0.515,20.068 -13.253,28.075 -14.206,29.183c-25.431,10.29 -26.155,6.564 -45.669,-1.591Z" style="fill:#00206e;fill-opacity:1;"/><path d="M1358.913,1767.07l-7.137,-0.637c-21.434,-3.227 -21.194,0.494 -42.806,-0.25c-4.039,-0.139 -8.387,-3.725 -11.979,-1.872c-2.658,1.372 1.127,7.471 -1.531,8.842l-0.841,6.087l-1.112,6.087l-6.154,6.077c0.037,-26.508 -1.267,-74.247 3.883,-78.75c3.291,-2.878 4.699,-4.108 54.613,-1.97c19.47,0.834 13.043,54.184 13.064,56.384Z" style="fill:#fde1fd;fill-opacity:0.99;"/><path d="M670.286,1791.411l8.726,-6.084l0.195,-6.087l1.191,-6.087c1.458,-1.583 -2.657,-7.854 13.597,-8.783c2.947,-0.168 30.875,-1.764 36.883,1.013c2.409,1.114 -0.672,6.656 1.736,7.77c-0.744,2.611 -5.877,2.134 -6.621,4.745c-5.112,17.949 4.948,18.355 -1.427,50.448c-30.087,4.781 -35.251,-5.431 -54.317,17.852c0.012,-18.262 0.025,-36.525 0.037,-54.787Z" style="fill:#aafefe;fill-opacity:1;"/><path d="M1823.143,858.013c166.71,107.485 166.58,107.015 181.012,116.403c-7.625,4.764 -7.638,12.458 -20.684,3.654c-29.207,-19.709 -141.043,-91.042 -145.07,-93.026c-31.885,-15.709 -15.981,-24.006 -15.258,-27.031Z" style="fill:#fddcfd;fill-opacity:0.99;"/><path d="M1876.454,1025.82c-19.661,16.418 -152.03,109.2 -126.179,73.27c10.662,-14.819 121.198,-72.254 110.806,-86.246c-0.106,-0.142 -5.335,-3.874 -5.802,-4.207c-44.672,-31.877 -67.116,-36.285 -46.565,-43.214c3.622,-1.221 4.49,-1.514 41.059,24.437c31.48,22.341 32.7,25.757 26.681,35.96Z" style="fill:#d8bae8;fill-opacity:0.99;"/><path d="M1007.657,654.209c23.325,-40.601 53.6,-6.058 56.382,-0.368c20.154,41.215 -68.258,70.295 -56.382,0.368Z" style="fill:#1b1990;fill-opacity:1;"/><path d="M861.228,1913.185c16.039,-17.286 16.46,-23.804 38.948,-15.984c10.549,3.669 10.353,2.843 19.407,9.047l1.293,6.911l0.435,6.087l0.502,6.087l1.017,6.087l8.638,6.039c-2.623,4.135 -11.818,18.629 -60.457,9.582c-13.922,-2.589 -9.749,-32.476 -9.783,-33.858Z" style="fill:#06f8fe;fill-opacity:1;"/><path d="M2203.927,657.408c2.237,0.407 4.405,-1.962 6.642,-1.555c21.522,3.919 -53.742,38.241 -80.72,56.304c-22.658,15.171 -23.248,13.592 -45.91,28.973c-7.089,4.811 -77.913,57.898 -55.963,17.652c6.233,-1.545 12.435,-3.082 68.49,-41.87c85.706,-48.639 85.152,-49.468 107.46,-59.504Z" style="fill:#d1fdfe;fill-opacity:0.99;"/><path d="M861.272,1876.607l5.884,-6.058c11.193,-7.244 40.947,-13.847 54.258,0l1.559,6.087l8.906,6.088c-0.137,18.245 -0.273,36.491 -0.41,54.736l-8.638,-6.039l-1.017,-6.087l-0.502,-6.087l-0.435,-6.087l-1.293,-6.911c-9.054,-6.204 -8.858,-5.378 -19.407,-9.047c-22.488,-7.821 -22.909,-1.303 -38.948,15.984l0.044,-36.578Z" style="fill:#31fdfe;fill-opacity:1;"/><path d="M521.959,1833.176l8.04,0.649c14.641,-7.805 14.694,-1.906 18.262,-0.94c0.194,0.052 0.021,0.045 18.081,-2.501c21.855,-3.081 23.735,8.703 25.913,10.386c-4.841,9.769 -9.682,19.537 -14.524,29.306c-7.902,-6.449 -7.084,-8.923 -17.451,-7.334c-18.448,2.828 -18.116,-3.148 -36.368,-0.456c-2.63,0.388 -3.457,4.765 -6.087,5.153l-5.546,3.109l-6.628,0.402c0.268,-4.866 0.536,-9.731 0.804,-14.597c5.152,-2.708 5.102,-2.429 15.505,-23.179Z" style="fill:#60fdfe;fill-opacity:1;"/><path d="M1195.702,1450.495c-0,-27.061 -5.615,-129.85 15.479,-97.071c8.459,13.145 2.738,112.288 2.175,122.037c-0.382,6.612 -6.974,5.921 -7.745,5.84c-13.465,-1.411 -7.178,-7.493 -9.909,-30.806Z" style="fill:#eef9fe;fill-opacity:1;"/><path d="M860.523,1791.13l6.692,-5.802c4.669,-13.154 1.388,-25.47 34.254,-19.024c7.381,1.448 23.21,26.693 6.167,30.595c-25.249,5.781 -32.644,4.57 -31.175,30.122c-7.394,13.092 -14.114,23.263 -15.418,25.237c-0.11,-53.066 -0.389,-52.725 -0.52,-61.127Z" style="fill:#bdfefe;fill-opacity:1;"/><path d="M724.566,1828.346c2.857,3.922 5.713,7.844 8.57,11.767l0.804,6.087l6.694,6.022l-0.308,30.444c-1.803,-4.039 -3.606,-8.078 -5.409,-12.117c-18.393,-17.234 -21.952,-3.652 -40.559,-5.988c-8.986,-1.128 -8.7,-0.079 -15.153,5.988l-1.758,6.087l-7.276,6.088l0.078,-36.526c19.067,-23.283 24.23,-13.071 54.317,-17.852Z" style="fill:#5afefe;fill-opacity:1;"/><path d="M1398.67,1444.437c-0.055,2.99 -0.848,46.486 -14.51,34.45c-7.184,-6.329 -3.669,-7.915 -1.797,-119.661c0.025,-1.495 0.28,-16.693 12.807,-13.609c5.474,1.347 3.609,25.006 3.5,98.82Z" style="fill:#fbf9fc;fill-opacity:0.99;"/><path d="M725.408,1007.264c2.641,3.667 5.282,7.334 7.923,11c22.433,20.754 99.994,66.82 118.424,80.325c9.983,7.316 2.214,16.778 -9.846,8.738c-117.174,-78.119 -136.418,-83.127 -116.502,-100.063Z" style="fill:#58cde2;fill-opacity:1;"/><path d="M1017.852,943.984c23.409,16.548 33.967,28.573 36.512,31.47c-4.685,5.725 -4.423,5.201 -8.017,11.397c-4.823,75.937 -3.24,80.21 -9.388,78.669c-8.225,-2.062 -5.754,-5.663 -38.857,-28.084c11.208,-4.091 11.148,-4.839 12.083,-4.41c2.557,1.172 3.305,4.956 5.906,6.029c2.185,0.901 4.806,-1.41 7.055,-0.685c3.018,0.972 4.732,6.33 7.783,5.467c1.765,-0.499 1.925,-18.118 1.94,-19.702c0.092,-10.133 -0.255,-20.269 -0.012,-30.399c0.601,-25.053 -4.399,-24.069 -24.136,-39.377l9.131,-10.375Z" style="fill:#f8c4fd;fill-opacity:1;"/><path d="M323.045,2014.864c-14.106,-0.035 -73.471,1.772 -85.43,-4.093c-19.741,-9.681 11.276,-9.928 12.557,-9.939c86.819,-0.692 130.323,-4.607 125.963,8.999c-1.759,5.488 -48.823,5.071 -53.089,5.033Z" style="fill:#08e9fa;fill-opacity:0.99;"/><path d="M1413.017,677.86c-49.211,24.175 -45.548,-45.036 -12.179,-38.682c36.908,7.029 14.176,36.125 12.179,38.682Z" style="fill:#2e0e99;fill-opacity:1;"/><path d="M887.573,788.265c22.475,25.934 46.844,47.294 26.058,39.93c-62,-21.968 -76.379,-131.904 -45.117,-70.066c8.184,16.188 8.662,15.323 19.059,30.137Z" style="fill:#3becf7;fill-opacity:1;"/><path d="M761.341,2068.723c17.528,-0.213 67.617,-0.823 219.117,0.88c-19.159,11.814 -20.711,3.89 -42.787,7.013c-2.394,0.339 -2.318,-1.203 -30.156,2.022c-18.864,2.185 -18.459,-5.097 -36.774,-1.864c-1.914,0.338 -1.876,-3.338 -24.295,0.312c-2.346,0.382 -21.2,3.452 -29.656,-1.847c-2.567,-1.609 -3.77,-5.641 -6.77,-6.063c-12.068,-1.696 -24.492,1.67 -36.56,-0.026l-12.12,-0.428Z" style="fill:#213967;fill-opacity:0.25;"/><path d="M1421.056,1006.11c-13.088,48.016 -59.734,1.775 -31.633,-16.284c21.115,-13.569 30.687,13.599 31.633,16.284Z" style="fill:#011d6b;"/><path d="M1711.485,1238.277c-72.717,45.321 -72.551,45.343 -78.88,49.253c-0.474,-4.077 -6.428,-6.121 -6.902,-10.198c-1.453,-12.492 7.784,-4.489 18.029,-11.924c20.804,-15.096 21.415,-13.039 43.137,-27.283c19.553,-12.822 20.067,-2.422 24.616,0.153Z" style="fill:#fdcdfc;fill-opacity:1;"/><path d="M816.056,1678.445c-4.043,0.387 -8.085,0.775 -12.128,1.162c-45.599,-0.23 -45.276,-0.089 -103.461,0.033c28.057,-1.786 23.784,-9.738 27.012,-14.171c3.34,-4.585 35.375,-3.2 41.605,2.378c7.213,6.458 25.075,-3.631 40.258,3.719c2.884,1.396 3.829,5.482 6.713,6.878Z" style="fill:#415980;fill-opacity:0.05;"/><path d="M1619.929,917.013c-49.855,-8.478 -7.766,-50.098 10.547,-31.273c18.137,18.645 -8.13,30.209 -10.547,31.273Z" style="fill:#0b0f6c;fill-opacity:1;"/><path d="M405.293,1657.188c22.502,19.546 28.247,0.111 44.683,8.776c14.643,7.72 18.379,-5.728 30.733,5.082c1.298,1.136 -0.277,6.802 18.846,8.572c-81.19,-0.418 -98.806,7.554 -94.261,-22.43Z" style="fill:#344c70;fill-opacity:0.05;"/><path d="M1509.363,509.526c16.773,14.098 23.262,19.096 6.533,33.7c-17.87,15.6 -55.726,-29.652 -6.533,-33.7Z" style="fill:#6916d3;fill-opacity:1;"/><path d="M1042.498,1339.943c0.285,0.042 5.832,-2.561 22.89,7.583c-0.362,1.458 3.367,1.901 3.005,3.359c-0.793,3.199 -5.135,4.77 -5.821,7.995c-2.153,10.12 -1.484,20.641 -2.462,30.942c-1.211,12.757 -10.381,10.758 -11.097,11.149c-0.347,-28.251 8.137,-30.964 -9.179,-53.232l2.663,-7.795Z" style="fill:#f17afb;fill-opacity:1;"/><path d="M499.554,1679.619c41.103,-4.046 52.101,5.163 67.527,-8.815c11.505,-10.425 13.954,-0.73 36.514,-4.673c22.17,-3.876 20.149,11.318 42.077,13.54c-73.061,-0.132 -72.616,-0.132 -146.118,-0.052Z" style="fill:#3c577f;fill-opacity:0.05;"/><path d="M195.226,1586.871c8.82,-8.087 7.336,-14.415 18.566,-9.7c19.451,8.165 22.398,-11.037 36.813,-0.205c12.782,9.605 17.393,-8.216 29.293,2.6c5.467,4.969 6.058,3.456 12.715,7.253l6.059,0.416c-49.163,0.85 -48.647,0.308 -97.368,-0.088l-6.079,-0.276Z" style="fill:#44567d;fill-opacity:0.09;"/><path d="M1542.759,1351.362c-19.918,26.724 -10.489,29.667 -9.701,62.774l-4.751,-4.47l-6.129,-1.747l-1.164,-6.087l-0.541,-6.087l0.166,-6.087l0.28,-6.087l-0.18,-6.087l0.454,-6.087l-1.469,-6.087l-1.173,-6.087c0.839,-1.92 7.036,-16.106 22.172,-13.93c2.113,0.304 -0.076,5.768 2.037,6.071Z" style="fill:#fc94fb;fill-opacity:1;"/><path d="M1153.082,832.877c19.514,8.155 20.238,11.881 45.669,1.591c4.04,7.799 13.814,7.636 6.26,12.087c-22.221,13.091 -61.127,6.711 -59.47,-4.75c0.557,-3.855 6.983,-5.072 7.541,-8.928Z" style="fill:#66f8fc;fill-opacity:1;"/><path d="M152.711,1574.369c11.7,6.006 12.39,5.987 23.927,-0.139c10.483,4.515 9.819,4.917 18.588,12.641l6.079,0.276c-57.368,1.662 -72.801,3.01 -79.112,3.561c10.664,-15.066 12.966,-11.695 30.518,-16.339Z" style="fill:#54668b;fill-opacity:0.06;"/><path d="M964.507,916.27c1.807,0.35 2.646,-3.615 4.454,-3.265c7.978,1.543 17.561,10.81 18.848,12.054c8.09,7.822 11.002,2.898 18.304,11.477c4.818,5.661 5.734,3.638 11.739,7.449l-9.131,10.375c-24.204,-15.63 -23.877,-15.438 -48.31,-31.308l4.096,-6.781Z" style="fill:#fdc1fd;fill-opacity:0.99;"/><path d="M1503.142,27.309c-11.229,-7.507 -10.852,-10.578 -23.963,-7.623c-3.357,0.757 -4.705,2.047 -1.683,42.984c-16.118,-13.922 -5.87,-47.013 -3.656,-54.646c5.528,-19.056 25.57,-0.739 29.302,19.286Z" style="fill:#2d5893;fill-opacity:0.05;"/><path d="M389.793,610.163c3.103,0.415 3.108,6.63 6.211,7.045c2.689,0.36 3.392,-5.121 6.091,-5.4c3.62,-0.374 47.542,1.413 48.769,2.379c2.789,2.194 3.298,6.539 6.087,8.733c-41.028,-1.34 -40.477,-3.541 -60.877,-0.335c-11.594,1.822 -12.518,-8.073 -12.93,-8.339c2.216,-1.361 4.433,-2.722 6.649,-4.084Z" style="fill:#a698f8;fill-opacity:0.99;"/><path d="M566.537,2068.032c14.188,0.316 28.376,0.632 42.565,0.948c-9.908,6.73 -9.064,9.774 -18.177,8.281c-11.083,-1.815 -11.044,-2.066 -12.685,-1.718c-15.322,3.253 -15.259,-2.481 -30.39,-0.039c-13.258,2.14 -13.113,1.094 -23.91,-6.515c39.397,-0.412 39.145,-0.387 42.549,-0.445c0.171,-0.003 -0.123,-0.509 0.048,-0.512Z" style="fill:#274772;fill-opacity:0.1;"/><path d="M269.659,1033.171c-8.627,8.629 -9.194,11.446 0.505,19.408l-0.46,6.595c-0.616,1.107 -7.7,13.833 -7.7,13.833c-6.646,5.642 -7.262,1.7 -11.431,-5.799c6.123,-6.354 4.813,-6.582 6.573,-15.197c-11.014,-3.224 -13.678,-6.12 -6.646,-15.163c11.421,-14.686 14.394,-4.82 19.158,-3.677Z" style="fill:#2c436e;fill-opacity:0.06;"/><path d="M408.267,2068.044c12.66,0.172 12.452,-0.314 158.27,-0.012c-0.171,0.003 0.123,0.509 -0.048,0.512c-3.404,0.058 -3.152,0.033 -42.549,0.445c-3.901,-0.004 -48.758,-0.054 -48.758,-0.054c-2.883,0.951 -3.785,5.135 -6.597,6.28c-29.998,12.208 -44.419,2.821 -47.612,0.743c-12.03,-7.829 -11.552,-7.762 -12.706,-7.915Z" style="fill:#19355d;fill-opacity:0.34;"/><path d="M881.75,163.924c-3.932,1.824 -5.88,2.727 -45.902,28.778c-2.326,-18.595 -7.981,-29.321 10.367,-25.29c18.008,3.956 17.342,-6.608 35.535,-3.488Z" style="fill:#285394;fill-opacity:0.11;"/><path d="M1103.328,21.651c1.284,-1.682 -1.186,-4.666 0.098,-6.348c1.053,-1.381 3.78,0.461 5.179,-0.568c11.124,-8.185 11.388,-11.576 23.501,-5.606c3.625,1.786 7.413,26.331 -6.068,27.234c-4.886,0.327 -4.173,0.855 -9.523,1.95c-0.592,-12.994 0.146,-17.375 -13.187,-16.662Z" style="fill:#254572;fill-opacity:0.08;"/><path d="M2184.964,934.199c0.942,-0.341 11.777,-4.268 11.777,-4.268c13.362,9.344 14.416,4.522 30.758,5.691c1.898,0.136 9.531,2.117 -6.032,23.01c-2.965,-1.886 -2.782,-2.053 -36.504,-24.432Z" style="fill:#322259;fill-opacity:0.07;"/><path d="M464.323,910.854c-15.602,9.361 -14.164,10.925 -30.397,18.127c-0.757,-21.101 -6.433,-38.862 10.867,-26.329c0.124,0.09 17.966,7.548 19.53,8.202Z" style="fill:#2f4a8a;fill-opacity:0.05;"/><path d="M816.056,1678.445c1.769,-1.058 4.415,1.065 6.184,0.007c6.885,-4.118 5.082,-5.823 11.412,-10.289c19.893,-14.036 25.191,-11.125 37.146,10.274c-33.547,0.923 -33.1,1.104 -66.87,1.171c4.043,-0.387 8.085,-0.775 12.128,-1.162Z" style="fill:#344668;fill-opacity:0.05;"/><path d="M1855.502,1369.234c3.465,3.711 9.371,4.488 12.835,8.199c2.723,2.917 -1.686,21.956 -10.481,10.723c-5.474,-6.991 -6.85,-2.129 -9.358,-0.765c-10.481,5.703 -10.813,5.921 -22.283,1.732c6.747,-5.184 26.915,-18.342 29.286,-19.889Z" style="fill:#463166;fill-opacity:0.04;"/><path d="M378.63,964.991c-21.093,12.991 -19.549,14.976 -41.844,25.179c1.866,-23.965 24.074,-27.161 27.987,-28.589c7.375,-2.692 6.839,-0.215 13.857,3.41Z" style="fill:#2c5490;fill-opacity:0.06;"/><path d="M329,1587.34c25.833,-15.941 38.663,-18.04 41.227,11.983c-0.798,-0.388 -11.561,-7.751 -41.227,-11.983Z" style="fill:#465879;fill-opacity:0.06;"/><path d="M2336.261,1032.914c12.951,-0.554 16.519,-2.912 19.677,9.757c3.529,14.159 19.828,18.148 5.534,21.908c-10.59,2.786 -8.238,-3.492 -20.47,-18.486c0.254,-7.587 -1.124,-6.877 -4.741,-13.178Z" style="fill:#453068;fill-opacity:0.09;"/><path d="M312.828,522.218c-9.245,6.778 -8.759,6.613 -18.985,11.005c0.053,-1.755 2.244,-74.064 18.985,-11.005Z" style="fill:#2d2859;fill-opacity:0.04;"/><path d="M2178.422,766.821c-4.898,12.691 -4.129,12.299 -7.226,25.97c-3.571,15.758 -12.774,5.043 -23.104,-7.706c15.363,-9.518 14.851,-9.105 30.331,-18.263Z" style="fill:#2a4486;fill-opacity:0.08;"/><path d="M464.999,796.421c2.339,1.6 18.173,12.435 29.533,19.568c-15.917,8.48 -15.696,8.985 -18.988,9.255c-13.171,1.08 -7.542,-6 -10.545,-28.822Z" style="fill:#3d327c;fill-opacity:0.07;"/><path d="M566.537,2068.032c56.812,0.045 113.625,0.09 170.437,0.136c-6.076,0.326 -12.152,0.652 -18.228,0.978c-3.902,-0.006 -48.774,-0.073 -48.774,-0.073c-2.831,0.883 -3.867,4.884 -6.649,5.91c-2.655,0.979 -24.442,9.016 -35.357,0.854c-2.539,-1.898 -3.642,-5.743 -6.621,-6.826c-3.836,-1.394 -8.408,1.362 -12.244,-0.032c-14.188,-0.316 -28.376,-0.632 -42.565,-0.948Z" style="fill:#162f59;fill-opacity:0.4;"/><path d="M798.744,1394.313c6.243,4.756 6.262,4.449 29.619,19.551c-2.538,0.96 -27.811,10.515 -33.53,-5.13c-4.472,-12.234 3.294,-12.146 3.911,-14.421Z" style="fill:#434b86;fill-opacity:0.05;"/><path d="M323.028,2068.069c4.384,0.156 4.033,-0.547 54.829,0.046c-3.255,1.466 -3.511,6.835 -6.765,8.301c-3.509,1.58 -7.713,-0.41 -11.545,-0.056c-14.755,1.364 -18.489,11.73 -36.518,-8.291Z" style="fill:#203d62;fill-opacity:0.13;"/><path d="M897.073,1460.388c11.411,7.305 15.491,8.107 36.51,23.997c-4.647,0.971 -1.843,4.804 -6.544,5.786c-0.628,0.131 -0.251,-0.809 -7.501,-2.852c-18.076,-5.093 -20.709,-7.218 -22.465,-26.931Z" style="fill:#394176;fill-opacity:0.09;"/><path d="M736.974,2068.168c8.122,0.185 16.244,0.37 24.367,0.556l12.12,0.428c-25.682,17.373 -28.969,16.441 -54.715,-0.005c6.076,-0.326 12.152,-0.652 18.228,-0.978Z" style="fill:#284a7b;fill-opacity:0.1;"/><path d="M2270.264,706.864c-2.316,13.959 -3.791,13.111 -12.137,25.001c-8.455,12.044 -11.061,4.441 -24.366,-0.95c2.932,-1.906 32.031,-20.818 36.503,-24.051Z" style="fill:#27498d;fill-opacity:0.11;"/><path d="M1296.958,274.392c4.648,-13.945 10.681,-13.779 12.147,-13.739c17.657,0.484 21.678,-0.894 24.332,16.055c-12.16,-0.772 -24.32,-1.544 -36.48,-2.315Z" style="fill:#2e4a83;fill-opacity:0.04;"/><path d="M557.947,1039.103c3.109,-0.753 0.993,-11.481 15.213,-3.685c18.218,9.988 18.139,9.67 18.559,11.359c0.906,3.641 -3.3,7.357 -2.394,10.999c-28.75,-14.08 -29.037,-16.893 -31.378,-18.672Z" style="fill:#85f1fe;fill-opacity:0.99;"/><path d="M1205.719,1876.607c4.602,5.607 3.861,5.459 8.098,10.621c0.867,1.056 0.816,0.968 11.01,13.063c-5.916,2.608 -6.869,8.537 -17.515,-0.955c-16.69,-14.88 -6.77,-17.679 -1.592,-22.729Z" style="fill:#88eef9;fill-opacity:1;"/><path d="M331.804,1094.518c9.217,5.091 18.434,10.182 27.651,15.273c-13.262,8.422 -27.641,15.876 -27.651,-15.273Z" style="fill:#355a98;fill-opacity:0.05;"/><path d="M725.408,1007.264c1.902,-1.169 75.207,-46.244 27.716,-3.273c-1.448,1.31 -1.897,0.158 -19.792,14.273c-2.641,-3.667 -5.282,-7.334 -7.923,-11Z" style="fill:#5d95b6;fill-opacity:1;"/><path d="M12.189,1706.122c-0.946,24.61 -1.505,24.163 -0.211,48.886c-11.982,-7.928 -19.609,-33.888 0.211,-48.886Z" style="fill:#364969;fill-opacity:0.18;"/><path d="M2093.091,874.499c2.99,-1.457 4.103,-5.559 7.093,-7.016c0.985,-0.48 0.979,0.204 13.05,4.139c5.616,1.83 9.408,8.049 9.967,8.965c1,1.64 -1.29,4.308 -0.036,5.763c2.2,2.552 5.163,-3.481 5.051,0.055c-0.155,4.899 -5.114,1.932 -5.266,6.761c-2.366,-1.53 -18.261,-11.809 -29.859,-18.666Z" style="fill:#3c2f75;fill-opacity:0.09;"/><path d="M1025.105,1545.117c2.347,1.549 18.341,12.108 29.622,18.925c-11.954,3.653 -28.71,18.052 -29.622,-18.925Z" style="fill:#3d457a;fill-opacity:0.08;"/><path d="M1521.519,1589.532c8.623,6.566 8.223,8.018 19.123,6.292c10.073,-1.595 6.037,4.072 5.455,14.379c-24.563,-6.009 -38.319,-7.35 -24.578,-20.671Z" style="fill:#524978;fill-opacity:0.08;"/><path d="M1477.554,257.4c-2.727,30.218 7.91,56.964 -16.734,38.924c1.492,-1.789 5.445,0.942 6.937,-0.848c3.314,-3.976 -5.573,-25.428 9.797,-38.076Z" style="fill:#224b89;fill-opacity:0.16;"/><path d="M864.99,1438.048c2.033,1.324 1.813,1.505 25.084,17.052c-15.527,4.913 -15.357,5.607 -18.95,4.981c-14.365,-2.502 -9.522,-7.767 -6.135,-22.033Z" style="fill:#434d8c;fill-opacity:0.07;"/><path d="M1224.173,278.558l-36.496,4.584c1.45,-1.446 14.248,-14.21 19.261,-16.863c11.862,-6.277 11.533,0.13 17.235,12.279Z" style="fill:#304e89;fill-opacity:0.11;"/><path d="M1477.514,117.403c0.051,16.242 0.102,32.485 0.153,48.727c-13.372,-10.664 -12.606,-38.377 -0.153,-48.727Z" style="fill:#1e467f;fill-opacity:0.19;"/><path d="M2263.463,503.552c13.756,-2.377 12.968,-2.892 25.936,-7.665c42.572,-15.669 -6.966,19.177 -8.397,20.183c-9.56,-5.41 -9.042,-5.337 -17.539,-12.518Z" style="fill:#234384;fill-opacity:0.09;"/><path d="M494.944,1198.919c12.032,10.134 14.378,5.839 30.376,18.039l-7.162,6.101c-21.65,-5.35 -18.106,-10.228 -23.214,-24.14Z" style="fill:#35508c;fill-opacity:0.09;"/><path d="M566.764,336.701l5.607,-2.233c3.44,1.337 4.537,-1.083 6.081,2.363c2.032,4.535 2.632,3.732 11.918,11.099l-16.049,9.821c-5.776,-10.382 -6.699,-9.666 -7.558,-21.05Z" style="fill:#364a8f;fill-opacity:0.05;"/><path d="M2172.851,447.185c11.996,-15.962 11.33,-16.234 13.644,-16.794c19.08,-4.612 -1.087,22.379 -2.238,23.919c-3.802,-2.375 -7.604,-4.75 -11.406,-7.125Z" style="fill:#234381;fill-opacity:0.04;"/><path d="M876.838,1678.532c20.658,-12.277 40.916,-30.306 29.225,-8.856c-2.902,5.324 -5.409,3.1 -7.635,8.735c-1.285,3.253 3.235,2.404 1.948,5.66c-1.897,-0.379 -1.606,-0.438 -23.538,-5.539Z" style="fill:#3e5272;fill-opacity:0.08;"/><path d="M701.902,1332.816c13.266,7.813 13.335,7.014 24.624,17.335c-1.603,0.328 -18.849,3.855 -20.111,3.741c-9.161,-0.83 -6.019,-12.53 -4.513,-21.077Z" style="fill:#3a477e;fill-opacity:0.1;"/><path d="M665.283,1308.415c15.605,9.262 14.965,9.382 29.808,19.279c-0.963,0.356 -12.035,4.448 -12.035,4.448c-14.807,-7.48 -16.461,-7.446 -17.772,-23.726Z" style="fill:#374684;fill-opacity:0.11;"/><path d="M963.159,1503.956c6.988,4.497 27.548,17.389 29.948,18.893c-21.655,8.01 -26.693,4.2 -29.948,-18.893Z" style="fill:#373f75;fill-opacity:0.11;"/><path d="M937.88,908.718c2.658,-1.554 1.774,-6.55 4.432,-8.104c5.356,-3.131 20.746,14.038 22.196,15.656l-4.096,6.781l-22.532,-14.333Z" style="fill:#febdfc;fill-opacity:0.99;"/><path d="M1564.032,1616.681c11.751,-5.328 11.346,-6.904 24.276,-5.281c1.368,0.172 13.603,4.295 -5.608,16.294c-6.223,-3.671 -12.445,-7.342 -18.668,-11.013Z" style="fill:#3f385c;fill-opacity:0.06;"/><path d="M1563.177,1563.396c2.013,6.242 8.131,4.275 6.753,20.945c-1.066,12.894 -13.384,4.091 -12.727,0.541c0.478,-2.579 5.364,-4.08 4.404,-6.52c-1.514,-3.85 -8.394,-3.623 -9.909,-7.472c3.826,-2.498 7.653,-4.995 11.479,-7.493Z" style="fill:#393057;fill-opacity:0.06;"/><path d="M1054.848,151.239c-0.44,2.959 2.225,5.836 1.785,8.796c-2.619,17.618 -10.096,9.378 -27.429,6.749c11.275,-10.396 10.679,-10.937 25.644,-15.545Z" style="fill:#4af9fe;fill-opacity:1;"/><path d="M377.347,1603.542c13.939,-5.631 17.172,-7.405 24.014,5.845c1.317,2.551 4.951,4.144 4.999,7.015c0.038,2.328 -4.839,2.745 -4.8,5.073c-11.955,-9.817 -11.66,-9.407 -24.212,-17.933Z" style="fill:#3b5177;fill-opacity:0.08;"/><path d="M1717.037,2073.548c18.237,0.005 36.475,0.011 54.712,0.016c-7.263,1.182 -4.953,5.359 -12.148,7.226c-20.909,5.426 -39.583,-5.498 -42.565,-7.242Z" style="fill:#342054;fill-opacity:0.28;"/><path d="M2386.105,2003.576c1.673,3.144 6.262,4.011 7.935,7.156c1.021,1.918 2.697,17.134 -26.948,3.391c1.546,-0.797 0.855,-0.844 19.014,-10.546Z" style="fill:#402a5e;fill-opacity:0.08;"/><path d="M116.613,1592.216l-12.601,4.736c-0.083,-0.043 -8.674,3.578 -11.769,-6.062c-0.597,-1.859 0.492,-22.234 24.369,1.326Z" style="fill:#546585;fill-opacity:0.04;"/><path d="M969.433,107.229c-1.489,0.918 -11.199,6.908 -18.359,11.873l-7.644,-5.966c9.927,-8.313 10.357,-7.92 10.722,-8.978c2.351,-6.815 2.102,-10.762 8.408,-6.723c3.359,2.151 3.515,7.643 6.873,9.794Z" style="fill:#25497e;fill-opacity:0.06;"/><path d="M1794.433,205.502c4.554,1.285 9.107,2.57 13.661,3.854c14.78,12.077 14.945,11.598 16.024,12.836l1.328,6.393c-25.541,-11.254 -29.715,-20.276 -31.013,-23.083Z" style="fill:#22488a;fill-opacity:0.15;"/><path d="M1157.392,290.026c-12.016,3.55 -11.924,1.923 -24.153,6.187c-10.894,3.798 -10.711,4.522 -12.592,3.385c-1.315,-0.794 -0.322,-3.513 -1.637,-4.308c19.32,-7.972 19.645,-13.74 38.381,-5.265Z" style="fill:#274888;fill-opacity:0.19;"/><path d="M2330.011,546.461c4.9,-1.169 8.225,-15.586 20.435,2.894c4.239,6.417 3.561,6.167 4.661,13.541c-12.765,-8.486 -12.894,-7.306 -25.096,-16.436Z" style="fill:#20366b;fill-opacity:0.13;"/><path d="M439.768,779.212c6.151,4.029 12.301,8.058 18.452,12.087c-11.264,5.571 -13.702,13.112 -20.292,2.445c-5.824,-9.428 1.75,-13.818 1.841,-14.532Z" style="fill:#403281;fill-opacity:0.08;"/><path d="M2239.939,970.494c10.527,-5.209 10.692,-8.969 17.289,-4.451c3.088,2.115 2.05,2.683 5.351,18.758c-11.472,-6.939 -11.002,-6.638 -22.64,-14.307Z" style="fill:#40286c;fill-opacity:0.1;"/><path d="M2056.142,351.095c2.686,10.769 0.526,10.353 -3.669,20.868c-4.652,-3.05 -9.304,-6.1 -13.955,-9.151c8.494,-7.067 7.822,-7.439 17.625,-11.718Z" style="fill:#1f4173;fill-opacity:0.05;"/><path d="M1006.663,1532.842c6.203,2.992 5.891,2.732 11.771,6.892c-1.36,1.25 -15.688,14.417 -19.159,12.89c-8.329,-3.663 -1.594,-5.87 7.388,-19.782Z" style="fill:#323961;fill-opacity:0.07;"/><path d="M1960.528,2073.663c16.213,-0.009 32.425,-0.018 48.638,-0.028c-11.281,6.436 -11.095,6.676 -12.183,6.951c-15.17,3.833 -35.879,-6.837 -36.455,-6.923Z" style="fill:#321e4f;fill-opacity:0.3;"/><path d="M292.613,1586.818c13.404,-11.084 12.514,-13.558 18.069,-11.667c0,0 11.284,11.262 12.265,12.242c-12.541,0.467 -11.956,0.554 -24.274,-0.159l-6.059,-0.416Z" style="fill:#37486b;fill-opacity:0.17;"/><path d="M2246.607,1681.106c4.902,-7.418 4.494,-7.132 11.564,-12.995c40.486,-33.572 1.292,12.166 0.576,12.912l-12.141,0.082Z" style="fill:#56486e;fill-opacity:0.05;"/><path d="M517.568,877.942c-7.708,4.694 -15.415,9.388 -23.123,14.082c4.96,-33.728 21.171,-14.611 23.123,-14.082Z" style="fill:#2b3676;fill-opacity:0.12;"/><path d="M1118.214,160.413c0.708,2.734 5.362,3.178 6.07,5.912c0.247,0.954 -0.022,29.991 -0.276,30.687c-0.967,2.64 -5.309,2.996 -6.275,5.636c0.161,-14.078 0.321,-28.157 0.482,-42.235Z" style="fill:#214273;fill-opacity:0.16;"/><path d="M384.44,477.489c-11.595,7.549 -10.795,8.029 -23.131,13.854c4.321,-14.106 1.897,-20.061 16.829,-18.055c2.502,0.336 3.8,3.865 6.302,4.201Z" style="fill:#443b87;fill-opacity:0.15;"/><path d="M294.861,1070.168c7.231,3.053 7.401,2.008 23.217,13.43c-10.443,5.429 -10.535,6.571 -11.239,5.842c-3.302,-3.422 -2.593,-3.602 -6.597,-6.358c-2.109,-1.451 -3.708,-3.716 -4.693,-6.079c-0.881,-2.114 0.193,-4.721 -0.688,-6.835Z" style="fill:#27467f;fill-opacity:0.13;"/><path d="M1570.716,69.084c11.809,-0.852 20.255,-8.306 23.145,13.735c-1.987,-0.83 -10.82,-4.52 -23.145,-13.735Z" style="fill:#235295;fill-opacity:0.1;"/><path d="M111.422,2013.872c3.989,2.207 7.978,4.414 11.968,6.621c-3.446,2.243 -3.832,7.715 -7.278,9.958c-3.151,2.051 -12.691,-5.372 -11.632,-8.207c1.269,-3.396 5.673,-4.976 6.943,-8.373Z" style="fill:#23416c;fill-opacity:0.08;"/><path d="M2148.318,910.109c2.771,-0.155 4.112,-4.531 6.883,-4.686c2.381,-0.133 3.628,3.433 5.952,3.97c6.955,1.607 10.351,-0.743 9.655,6.201c-0.271,2.706 -4.067,4.203 -4.338,6.909c-6.904,-5.014 -16.681,-11.429 -18.151,-12.393Z" style="fill:#412b74;fill-opacity:0.13;"/><path d="M816.767,203.887c-6.068,3.988 -12.136,7.977 -18.205,11.965c0.051,-7.036 0.238,-6.353 0.093,-12.716c-0.304,-13.292 6.63,-5.166 18.112,0.751Z" style="fill:#244b91;fill-opacity:0.13;"/><path d="M914.233,142.848c-1.505,0.906 -11.558,6.961 -18.63,11.627c1.08,-7.237 1.432,-6.555 4.494,-13.482c6.605,-14.943 9.229,-1.007 14.136,1.855Z" style="fill:#204883;fill-opacity:0.15;"/><path d="M409.496,760.736c9.463,5.596 9.244,5.282 18.49,11.458c-1.008,0.472 -12.596,5.902 -12.596,5.902c-0.861,-0.526 0.143,-1.041 -5.305,-11.447l-0.589,-5.913Z" style="fill:#3e3175;fill-opacity:0.15;"/><path d="M1630.759,107.19c3.112,-1.55 3.944,-6.131 7.056,-7.68c9.251,-4.606 11.227,17.398 11.387,19.175c-6.914,-4.905 -16.933,-10.632 -18.443,-11.495Z" style="fill:#2a5599;fill-opacity:0.16;"/><path d="M2359.456,645.653c-0.311,1.539 3.134,5.577 -2.813,13.894c-8.477,11.857 -9.472,0.35 -13.757,-1.851c1.379,-0.885 11.108,-7.124 16.57,-12.044Z" style="fill:#243c7e;fill-opacity:0.16;"/><path d="M2259.035,2066.509c3.441,9.659 3.712,9.545 3.717,10.431c0.075,13.428 -5.285,-0.604 -16.482,-8.066c-1.684,-1.123 -4.351,1.786 -6.036,0.664l18.801,-3.029Z" style="fill:#3d2958;fill-opacity:0.11;"/><path d="M2064.089,379.023c2.674,-1.379 3.327,-5.362 6.001,-6.741c8.671,-4.473 10.199,13.754 10.322,15.22c-9.174,-3.492 -8.698,-3.06 -16.323,-8.478Z" style="fill:#2e599f;fill-opacity:0.06;"/><path d="M1041.335,2069.551l30.407,0.384l-6.439,6.172c-5.87,-0.075 -11.741,-0.15 -17.611,-0.225l-6.357,-6.332Z" style="fill:#2d3e78;fill-opacity:0.27;"/><path d="M2086.407,1216.19c4.851,1.18 9.701,2.359 14.552,3.539c-21.136,4.484 -17.469,10.566 -19.226,10.64c-3.319,0.141 -3.663,-7.252 -6.982,-7.111c3.885,-2.356 7.771,-4.712 11.656,-7.068Z" style="fill:#3d245c;fill-opacity:0.12;"/><path d="M1054.364,975.455c1.23,2.643 6.616,1.223 7.846,3.866c0.545,1.171 -0.52,1.039 -7.22,14.434c-2.881,-2.301 -5.762,-4.602 -8.643,-6.903c3.594,-6.196 3.332,-5.672 8.017,-11.397Z" style="fill:#f896fc;fill-opacity:1;"/><path d="M1010.926,2069.878c10.136,-0.109 20.272,-0.218 30.409,-0.327c-14.231,8.593 -15.555,8.544 -30.409,0.327Z" style="fill:#283c72;fill-opacity:0.27;"/><path d="M2336.477,663.392c-3.601,28.846 -16.961,12.191 -17.817,12.182c8.527,-7.03 8.284,-6.213 17.817,-12.182Z" style="fill:#2d498d;fill-opacity:0.16;"/><path d="M2104.508,1204.213c-0.358,8.176 0.998,8.228 -3.55,15.516c-4.851,-1.18 -9.701,-2.359 -14.552,-3.539c8.88,-6.907 8.235,-6.878 18.101,-11.977Z" style="fill:#4a2d70;fill-opacity:0.17;"/><path d="M1588.43,1546.72c0.648,1.125 8.097,14.056 8.097,14.056c-0.791,13.425 -5.438,0.076 -15.143,-9.124l7.046,-4.932Z" style="fill:#45376c;fill-opacity:0.07;"/><path d="M1903.633,1338.131c-0.116,2.746 1.11,5.439 0.994,8.185c-0.502,11.894 -6.217,6.486 -16.72,1.355c5.242,-3.18 10.484,-6.36 15.726,-9.54Z" style="fill:#52357c;fill-opacity:0.09;"/><path d="M263.471,663.524c6.932,5.116 16.373,11.425 17.816,12.39c-2.777,0.198 -3.934,4.774 -6.711,4.972c-9.046,0.645 -10.918,-15.724 -11.105,-17.362Z" style="fill:#3c2c74;fill-opacity:0.2;"/><path d="M1728.404,167.682c2.746,-0.128 3.794,-4.895 6.539,-5.023c8.382,-0.392 11.478,15.022 11.799,16.62c-9.348,-5.752 -9.689,-4.622 -18.338,-11.597Z" style="fill:#16397a;fill-opacity:0.18;"/><path d="M1941.371,301.703c2.765,-0.098 3.834,-4.935 6.599,-5.033c8.392,-0.298 11.544,14.845 11.875,16.433c-9.334,-5.897 -9.603,-4.721 -18.474,-11.399Z" style="fill:#143777;fill-opacity:0.19;"/><path d="M1114.383,2070.048l24.277,-0.152c-11.135,9.929 -10.72,10.786 -12.004,10.704c0,0 -11.291,-9.708 -12.273,-10.552Z" style="fill:#2b3874;fill-opacity:0.3;"/><path d="M373.451,1119.375c3.774,2.363 7.549,4.725 11.323,7.088c-6.87,2.711 -7.825,6.656 -12.487,0.774c-3.557,-4.488 0.644,-4.353 1.164,-7.861Z" style="fill:#315494;fill-opacity:0.15;"/><path d="M270.164,1052.579c9.359,5.974 9.206,5.532 17.601,12.465c-3.34,-0.093 -2.703,-0.768 -5.928,-0.858c-6.934,-0.193 -5.796,-2.394 -12.133,-5.013l0.46,-6.595Z" style="fill:#1f386d;fill-opacity:0.27;"/><path d="M1555.324,1452.025c1.724,1.082 -1.087,7.341 9.602,6.026c3.013,-0.371 1.889,-2.49 5.164,-2.893c-8.385,3.132 -3.636,8.549 -11.708,11.565c-0.634,0.237 -3.977,1.485 -7.147,-4.521c-0.874,-1.655 2.862,-3.596 1.988,-5.252l2.1,-4.924Z" style="fill:#f246ea;fill-opacity:1;"/><path d="M87.103,2001.971c3.994,1.977 7.988,3.955 11.982,5.932c-6.927,4.263 -5.833,13.04 -10.847,6.675c0,0 -1.044,-11.599 -1.135,-12.607Z" style="fill:#203b5f;fill-opacity:0.17;"/><path d="M762.396,234.922l-0.797,4.703c-2.361,1.564 -2.591,0.199 -5.004,1.798c-0.553,0.366 0,-0 -6.564,5.055c1.244,-2.455 -0.36,-2.542 0.952,-5.132c4.92,-9.71 9.822,-5.528 11.413,-6.424Z" style="fill:#244581;fill-opacity:0.23;"/><path d="M1150.944,2069.881c6.069,0.113 12.137,0.225 18.206,0.338c-9.133,3.477 -9.069,3.31 -18.206,-0.338Z" style="fill:#2a316a;fill-opacity:0.39;"/><path d="M774.516,228.957c-6.514,5.44 -6.149,5.139 -12.917,10.668l0.797,-4.703c4.04,-1.988 8.08,-3.977 12.12,-5.965Z" style="fill:#1b3b74;fill-opacity:0.32;"/><path d="M1047.691,2075.883c5.87,0.075 11.741,0.15 17.611,0.225c-8.757,3.63 -8.985,3.493 -17.611,-0.225Z" style="fill:#23335d;fill-opacity:0.05;"/><path d="M1973.2,729.723c-9.65,2.326 -9.758,3.054 -10.422,2.512c-6.885,-5.627 1.778,-3.795 10.422,-2.512Z" style="fill:#22f6fe;fill-opacity:1;"/><path d="M481.349,633.766c9.267,-2.151 9.09,-1.287 18.088,1.744c-6.029,-0.581 -12.059,-1.162 -18.088,-1.744Z" style="fill:#f4a7fc;fill-opacity:0.99;"/></g></svg>